<?xml version="1.0" encoding="utf-8"?>
<!-- Generator: Adobe Illustrator 19.0.0, SVG Export Plug-In . SVG Version: 6.00 Build 0)  -->
<svg version="1.1" id="Camada_1" xmlns="http://www.w3.org/2000/svg" xmlns:xlink="http://www.w3.org/1999/xlink" x="0px" y="0px"
	 viewBox="0 0 94 104.9" style="enable-background:new 0 0 94 104.9;" xml:space="preserve">
<style type="text/css">
	.st0{fill:#FFEEE1;}
	.st1{fill:url(#XMLID_52_);}
	.st2{fill:#F69E57;}
	.st3{fill:url(#XMLID_53_);}
</style>
<g id="XMLID_70_">
	<g id="XMLID_1826_">
		<path id="XMLID_9_" class="st0" d="M48,93.3l0-1c1.9,0,3.8-0.1,5.6-0.4l0.1,1C51.9,93.1,49.9,93.3,48,93.3z M42.2,92.9
			c-1.9-0.3-3.8-0.7-5.7-1.2l0.3-1c1.8,0.5,3.7,0.9,5.5,1.2L42.2,92.9z M59.4,91.6l-0.3-1c1.8-0.5,3.6-1.2,5.3-2l0.4,0.9
			C63.1,90.4,61.3,91.1,59.4,91.6z M31.1,89.6c-1.8-0.8-3.5-1.7-5.1-2.8l0.5-0.8c1.6,1,3.3,1.9,5,2.7L31.1,89.6z M69.9,86.8L69.4,86
			c1.6-1,3.1-2.2,4.5-3.4l0.7,0.8C73.1,84.6,71.6,85.8,69.9,86.8z M21.4,83.4c-1.5-1.3-2.8-2.6-4.1-4.1l0.8-0.7c1.2,1.4,2.6,2.8,4,4
			L21.4,83.4z M78.7,79.2l-0.8-0.7c1.2-1.4,2.4-2.9,3.4-4.5l0.8,0.5C81.1,76.2,79.9,77.8,78.7,79.2z M13.8,74.7
			c-1-1.6-2-3.3-2.8-5.1l0.9-0.4c0.8,1.7,1.7,3.4,2.7,5L13.8,74.7z M84.9,69.5L84,69.1c0.8-1.7,1.4-3.5,2-5.3l1,0.3
			C86.4,65.9,85.7,67.7,84.9,69.5z M8.9,64.1c-0.5-1.8-1-3.8-1.2-5.7l1-0.1c0.3,1.9,0.7,3.7,1.2,5.5L8.9,64.1z M88.2,58.4l-1-0.1
			c0.3-1.9,0.4-3.8,0.4-5.6l0-0.2h1l0,0.2C88.6,54.6,88.5,56.5,88.2,58.4z M7.6,52.7l-0.3,0c0-1.9,0.1-3.8,0.4-5.7l1,0.1
			c-0.3,1.8-0.4,3.7-0.4,5.6L7.6,52.7z M87.2,46.8c-0.3-1.9-0.7-3.7-1.2-5.5l1-0.3c0.5,1.8,1,3.8,1.2,5.7L87.2,46.8z M9.9,41.5
			l-1-0.3c0.5-1.9,1.2-3.7,2-5.4l0.9,0.4C11,37.9,10.4,39.7,9.9,41.5z M84,36c-0.8-1.7-1.7-3.4-2.7-4.9l0.8-0.5
			c1.1,1.6,2,3.3,2.8,5.1L84,36z M14.5,31.3l-0.8-0.5c1-1.6,2.2-3.2,3.5-4.6l0.8,0.7C16.7,28.1,15.5,29.7,14.5,31.3z M77.8,26.5
			c-1.2-1.4-2.6-2.8-4-4l0.7-0.8c1.5,1.3,2.8,2.6,4.1,4.1L77.8,26.5z M21.9,22.7L21.2,22c1.5-1.3,3-2.4,4.6-3.5l0.5,0.8
			C24.8,20.3,23.3,21.5,21.9,22.7z M69.3,19.2c-1.6-1-3.3-1.9-5-2.7l0.4-0.9c1.8,0.8,3.5,1.7,5.1,2.8L69.3,19.2z M31.4,16.6
			l-0.4-0.9c1.8-0.8,3.6-1.5,5.4-2l0.3,1C34.9,15.1,33.1,15.8,31.4,16.6z M59,14.5c-1.8-0.5-3.7-0.9-5.5-1.2l0.1-1
			c1.9,0.3,3.8,0.7,5.7,1.2L59,14.5z M42.2,13.4l-0.1-1c1.9-0.3,3.8-0.4,5.8-0.4l0,1C45.9,13,44,13.1,42.2,13.4z"/>
	</g>
	<g id="XMLID_1_">
		
			<linearGradient id="XMLID_52_" gradientUnits="userSpaceOnUse" x1="466.226" y1="-7.1195" x2="502.1012" y2="55.0182" gradientTransform="matrix(0.9954 -9.536995e-02 9.536995e-02 0.9954 -436.3016 74.9539)">
			<stop  offset="0" style="stop-color:#FF9657"/>
			<stop  offset="0.3911" style="stop-color:#CC6D2E"/>
			<stop  offset="0.6515" style="stop-color:#AF5617"/>
			<stop  offset="0.8238" style="stop-color:#9F480A"/>
			<stop  offset="1" style="stop-color:#933E00"/>
		</linearGradient>
		<circle id="XMLID_1753_" class="st1" cx="47.9" cy="52.6" r="35.9"/>
		<g id="XMLID_76_">
			<path id="XMLID_86_" class="st2" d="M39.1,34.1c-2,0.1-4.1,2.2-4.4,4.5c-0.3,2.3,1.3,4,3.5,4c2.2-0.1,4.2-2,4.3-4.4
				C42.7,35.8,41.2,33.9,39.1,34.1z M56.4,34.1c-2-0.1-3.6,1.7-3.4,4c0.1,2.3,2,4.3,4.3,4.4c2.2,0.1,3.9-1.7,3.5-4
				C60.5,36.3,58.5,34.2,56.4,34.1z M33.5,44c-0.8,0-1.4,0.4-2,1c-0.6,0.6-1,1.4-1.4,2.3c-1.2,3.1-1.7,4.6-2.6,7.6
				c0.7,1.2,1.1,1.8,1.9,3c0.4-0.9,1.3-1.5,2.3-1.6c0.4-0.1,0.8,0,1.2,0.1c3.5,0.9,5.2,1.4,8.7,2.4c0.3-1.1,0.5-1.6,0.8-2.7
				c0.2-0.6,0.4-1.2,0.8-1.7c0.4-0.5,1.1-0.8,1.8-0.8c0.8,0,1.2,0,1.9,0c0-0.3,0-0.4,0-0.7c-1.5-0.3-2.5-1.6-2.5-3.2
				c0-1,0.5-2,1.2-2.6l0,0c0-0.1-0.1-0.1-0.1-0.2c-0.3-0.9-0.6-1.8-1.1-2.4c-0.5-0.6-1-0.9-1.9-0.9c-0.8,0-1.2,0-2,0
				c-0.9,1-1.4,1.5-2.3,2.4c-0.1,0.1-0.3,0.2-0.5,0.2c-0.2,0-0.3-0.1-0.5-0.2c-0.8-0.9-1.2-1.4-2-2.3C34.8,44,34.4,44,33.5,44z
				 M52.8,43.7c-0.8,0-1.4,0.3-1.9,0.9c-0.5,0.6-0.9,1.4-1.1,2.4v0c0,0.1,0,0.1-0.1,0.2c0.7,0.6,1.2,1.5,1.2,2.6
				c0,1.6-1.1,2.9-2.5,3.2c0,0.3,0,0.4,0,0.7c0.8,0,1.2,0,1.9,0c0.7,0,1.4,0.4,1.8,0.8c0.4,0.5,0.7,1.1,0.8,1.7
				c0.3,1.1,0.5,1.6,0.8,2.7c3.5-0.9,5.2-1.4,8.7-2.4c0.4-0.1,0.8-0.1,1.2-0.1c1,0.1,1.9,0.7,2.3,1.6c0.8-1.2,1.2-1.8,1.9-3
				c-0.9-3-1.4-4.5-2.6-7.6C65,46.4,64.5,45.6,64,45c-0.6-0.6-1.2-0.9-2-1c-0.8,0-1.2-0.1-2-0.1c-0.1,0.2,0,0.3-0.2,0.5
				c-0.4,0.5-1.2,0.9-2.3,0.9c-1.2,0-2-0.5-2.5-1.1c-0.2-0.3-0.2-0.3-0.3-0.6C53.9,43.7,53.5,43.7,52.8,43.7z M20.1,46.3
				c-0.3,0-0.6,0.1-0.9,0.3c-0.9,0.5-1.4,1.5-1,2.2c2.9,5.4,5.1,8.4,9.5,14.7c0.3,0.4,0.7,0.7,1.2,0.9c3.7,1.1,5.6,1.7,9.2,2.7
				c0.3,0.1,0.6,0.3,0.9,0.5c0.5,0.3,0.9,0.8,1.1,1.4c0.1,0.4,0.2,0.6,0.3,1c2.7,0.1,4.1,0.1,6.8,0.1c0-2.6,0-3.9,0-6.5
				c0-0.3-0.1-0.6-0.3-0.8c-0.6-0.6-0.9-0.9-1.5-1.5c-0.2-0.2-0.4-0.3-0.6-0.4c-1-0.3-1.5-0.4-2.5-0.7c-0.1,0-0.2,0-0.3-0.1
				c-3.6-1-5.5-1.5-9.1-2.5c-1-0.3-2,0.3-2.2,1.2c-0.1,0.3-0.1,0.5,0,0.7c0,0.1,0,0.1,0,0.2c0.2,0.6,0.7,1.1,1.4,1.3
				c2.4,0.7,3.6,1,6,1.7c0.2,0,0.3,0.2,0.4,0.3s0.1,0.3,0.1,0.5c0,0.2-0.1,0.3-0.3,0.4c-0.1,0.1-0.3,0.1-0.5,0
				c-2.4-0.7-3.6-1.1-6-1.8c-1.1-0.3-2-1.2-2.4-2.2c-3.6-5.5-5.4-8.1-7.9-13C21.3,46.5,20.7,46.2,20.1,46.3L20.1,46.3z M75.5,46.3
				c-0.6-0.1-1.2,0.2-1.4,0.7c-2.4,4.8-4.2,7.5-7.9,13c-0.3,1-1.2,1.9-2.4,2.2c-2.4,0.7-3.6,1.1-6,1.8l0,0c-0.2,0.1-0.3,0-0.5,0
				c-0.1-0.1-0.2-0.2-0.3-0.4c0-0.2,0-0.3,0.1-0.5s0.2-0.3,0.4-0.3c2.4-0.7,3.6-1,6-1.7c0.7-0.2,1.2-0.7,1.4-1.3l0,0
				c0,0,0-0.1,0-0.1c0.1-0.3,0.1-0.5,0-0.8c-0.2-0.9-1.2-1.5-2.2-1.2c-4.8,1.3-7.2,2-11.9,3.3c-0.2,0.1-0.4,0.2-0.6,0.4
				c-0.6,0.6-0.9,0.9-1.5,1.5c-0.2,0.2-0.3,0.5-0.3,0.8c0,2.6,0,3.9,0,6.5c2.7,0,4.1,0,6.8-0.1c0.1-0.4,0.2-0.6,0.3-1
				c0.2-0.6,0.6-1.1,1.1-1.4c0.3-0.2,0.6-0.4,0.9-0.5c3.6-1.1,5.5-1.6,9.2-2.7c0.4-0.1,0.9-0.4,1.2-0.9c4.4-6.3,6.6-9.3,9.5-14.7
				c0.4-0.7-0.1-1.7-1-2.2C76.1,46.4,75.7,46.3,75.5,46.3L75.5,46.3z M47.8,47.7c-1,0-1.9,0.9-1.9,1.9c0,1.1,0.8,1.9,1.8,1.9
				c0,0,0,0,0.1,0c0,0,0.1,0,0.1,0c1,0,1.8-0.9,1.8-1.9C49.7,48.6,48.8,47.7,47.8,47.7L47.8,47.7z M45.2,54.9
				c-0.4,0-0.6,0.1-0.8,0.4c-0.2,0.3-0.4,0.7-0.6,1.2c-0.3,1.1-0.5,1.6-0.8,2.7c0.8,0.2,1.2,0.3,2,0.6l0,0c0,0,0.1,0,0.1,0
				c0,0,0.1,0,0.1,0c0.3,0.2,0.7,0.4,1,0.7c0.6,0.6,0.9,0.9,1.5,1.5h0c0,0,0,0,0,0c0,0,0,0,0,0c0,0,0,0,0,0l0,0c0,0,0,0,0,0
				c0.6-0.6,0.9-0.9,1.5-1.5c0.3-0.3,0.6-0.5,1-0.7c0,0,0.1,0,0.1,0c0,0,0.1,0,0.1,0c0.8-0.2,1.2-0.3,2-0.6
				c-0.3-1.1-0.5-1.6-0.8-2.7c-0.2-0.5-0.4-0.9-0.6-1.2c-0.2-0.3-0.4-0.4-0.8-0.4c-1,0-1.5,0-2.6,0v0c0,0,0,0,0,0
				C46.7,54.9,46.2,54.9,45.2,54.9z M39.2,71.2c-0.4,0-0.7,0.3-0.6,0.7c0.1,1,0.2,1.5,0.3,2.6c0.1,0.4,0.4,0.8,0.7,0.8
				c2.8,0.2,4.2,0.2,6.9,0.3c0.4,0,0.6-0.3,0.6-0.7c0-1.3,0-2,0-3.4C44,71.4,42.4,71.4,39.2,71.2z M48.4,71.5c0,0.3,0,0.4,0,0.7l0,0
				l0,0c0,1,0,1.6,0,2.6c0,0.4,0.3,0.8,0.6,0.7c2.8,0,4.2-0.1,6.9-0.3c0.4,0,0.7-0.4,0.7-0.8c0.1-1,0.2-1.5,0.3-2.6
				c0-0.4-0.2-0.7-0.6-0.7C53.2,71.4,51.6,71.4,48.4,71.5z"/>
		</g>
		
			<radialGradient id="XMLID_53_" cx="477.8869" cy="16.0891" r="30.1619" gradientTransform="matrix(0.9954 -9.536995e-02 9.536995e-02 0.9954 -436.3016 74.9539)" gradientUnits="userSpaceOnUse">
			<stop  offset="0" style="stop-color:#FFFFFF"/>
			<stop  offset="1" style="stop-color:#FFFFFF;stop-opacity:0"/>
		</radialGradient>
		<circle id="XMLID_75_" class="st3" cx="40.9" cy="45.4" r="30.2"/>
	</g>
</g>
</svg>
