<?xml version="1.0" encoding="utf-8"?>
<!-- Generator: Adobe Illustrator 28.2.0, SVG Export Plug-In . SVG Version: 6.00 Build 0)  -->
<svg version="1.1" id="Camada_1" xmlns="http://www.w3.org/2000/svg" xmlns:xlink="http://www.w3.org/1999/xlink" x="0px" y="0px"
	 viewBox="0 0 85.49 86.71" style="enable-background:new 0 0 85.49 86.71;" xml:space="preserve">
<style type="text/css">
	.st0{fill:none;stroke:#FF9752;stroke-miterlimit:10;stroke-dasharray:5.6693;}
	.st1{opacity:0.54;fill:url(#XMLID_00000129171193609290210110000013171541550502027676_);}
	.st2{fill:url(#XMLID_00000096038969341612701130000016834362810688683423_);}
	.st3{fill:url(#XMLID_00000018939224588227115250000013733773728226158526_);}
	.st4{fill:url(#XMLID_00000061447353745823843790000011105053322818399115_);}
	.st5{fill:url(#XMLID_00000074417697442782738050000005341124238484645049_);}
	.st6{fill:url(#XMLID_00000170264147814533423960000012358386816131012480_);}
	.st7{fill:url(#XMLID_00000042009385176105389230000002483080302682065038_);}
	.st8{fill:url(#XMLID_00000041997984220530245330000010139384564984516233_);}
	.st9{fill:url(#XMLID_00000041297002445049691610000012482408997599540116_);}
	.st10{fill:url(#XMLID_00000151523512020315748140000006213707892175072435_);}
	.st11{fill:url(#XMLID_00000141428605627507594830000004057958739263431571_);}
	.st12{fill:url(#XMLID_00000043454571504872728600000006868993489892928695_);}
	.st13{fill:url(#XMLID_00000176022778528379137800000011240868146299733126_);}
	.st14{fill:url(#XMLID_00000147183108417993424470000008869824547254946951_);}
	.st15{fill:url(#XMLID_00000143613414482869195530000010447181180418921884_);}
	.st16{fill:url(#XMLID_00000107580237407886249550000012718408592740091283_);}
	.st17{fill:url(#XMLID_00000122680105863169710860000004216922179434151326_);}
	.st18{fill:url(#XMLID_00000063617854877973775030000008671110164182798764_);}
</style>
<g id="XMLID_00000108280823710481268490000000959894335994325125_">
	<circle id="XMLID_00000086656554473560045320000007810682404528986266_" class="st0" cx="42.75" cy="43.36" r="40.15"/>
	<g id="XMLID_00000106149252079290149430000015797278527336768428_">
		
			<linearGradient id="XMLID_00000106149445502704928370000006249858028083448752_" gradientUnits="userSpaceOnUse" x1="462.1234" y1="-16.9065" x2="497.9556" y2="45.1567" gradientTransform="matrix(0.9954 -0.0954 0.0954 0.9954 -435.4522 74.5071)">
			<stop  offset="0" style="stop-color:#FFFFFF"/>
			<stop  offset="0.3497" style="stop-color:#D8D8D8"/>
			<stop  offset="0.6515" style="stop-color:#BBBBBB"/>
			<stop  offset="0.7561" style="stop-color:#D4D4D4"/>
			<stop  offset="0.9128" style="stop-color:#F3F3F3"/>
			<stop  offset="1" style="stop-color:#FFFFFF"/>
		</linearGradient>
		
			<circle id="XMLID_00000157987979674931693930000001104366883329647294_" style="opacity:0.54;fill:url(#XMLID_00000106149445502704928370000006249858028083448752_);" cx="43.75" cy="42.79" r="35.83"/>
		<g id="XMLID_00000055696555593786935580000008453315261483330717_">
			<g>
				<g id="XMLID_00000114779174397948303810000001982561394319267252_">
					
						<linearGradient id="XMLID_00000150092858742849078240000005885585389372346556_" gradientUnits="userSpaceOnUse" x1="53.5257" y1="46.8293" x2="62.5303" y2="46.8293">
						<stop  offset="0" style="stop-color:#FF9652"/>
						<stop  offset="0.4383" style="stop-color:#D26828"/>
						<stop  offset="0.7997" style="stop-color:#B4480B"/>
						<stop  offset="1" style="stop-color:#A83C00"/>
					</linearGradient>
					
						<path id="XMLID_00000080205217312831629870000016487363900829790124_" style="fill:url(#XMLID_00000150092858742849078240000005885585389372346556_);" d="
						M53.53,50.27c3.31-0.09,4.96-0.15,8.27-0.31c0.22-0.01,0.33-0.02,0.55-0.03c0.15-2.62,0.18-3.93,0.18-6.54
						c-3.56,0-5.35,0-8.91-0.01C53.62,46.14,53.6,47.52,53.53,50.27z"/>
					
						<linearGradient id="XMLID_00000072268204324793955360000017851316603729177528_" gradientUnits="userSpaceOnUse" x1="24.7809" y1="46.8307" x2="33.7844" y2="46.8307">
						<stop  offset="0" style="stop-color:#FF9652"/>
						<stop  offset="0.4383" style="stop-color:#D26828"/>
						<stop  offset="0.7997" style="stop-color:#B4480B"/>
						<stop  offset="1" style="stop-color:#A83C00"/>
					</linearGradient>
					
						<path id="XMLID_00000021801954228437403440000005102138732093131667_" style="fill:url(#XMLID_00000072268204324793955360000017851316603729177528_);" d="
						M24.96,49.94c0.18,0.01,0.26,0.01,0.44,0.02c3.35,0.16,5.03,0.22,8.38,0.31c-0.08-2.75-0.1-4.13-0.09-6.89
						c-3.56,0-5.35,0-8.91,0.01C24.78,46.01,24.81,47.32,24.96,49.94z"/>
					
						<linearGradient id="XMLID_00000064346735557875377880000006577332023545449889_" gradientUnits="userSpaceOnUse" x1="39.1457" y1="46.8959" x2="48.0542" y2="46.8959">
						<stop  offset="0" style="stop-color:#FF9652"/>
						<stop  offset="0.4383" style="stop-color:#D26828"/>
						<stop  offset="0.7997" style="stop-color:#B4480B"/>
						<stop  offset="1" style="stop-color:#A83C00"/>
					</linearGradient>
					
						<path id="XMLID_00000109730250892586756780000010408169734439219084_" style="fill:url(#XMLID_00000064346735557875377880000006577332023545449889_);" d="
						M39.15,43.39c3.56,0,5.35,0,8.91,0c0,2.8-0.01,4.19-0.04,6.99c-3.53,0.04-5.29,0.04-8.82,0
						C39.15,47.58,39.15,46.18,39.15,43.39z"/>
					
						<linearGradient id="XMLID_00000029023303746906720290000008372210653377084336_" gradientUnits="userSpaceOnUse" x1="32.5755" y1="32.2276" x2="54.5932" y2="32.2276">
						<stop  offset="0" style="stop-color:#FF9652"/>
						<stop  offset="0.4383" style="stop-color:#D26828"/>
						<stop  offset="0.7997" style="stop-color:#B4480B"/>
						<stop  offset="1" style="stop-color:#A83C00"/>
					</linearGradient>
					
						<path id="XMLID_00000106109779491651585430000011213934473000882871_" style="fill:url(#XMLID_00000029023303746906720290000008372210653377084336_);" d="
						M53.53,18.3c-7.94-1.02-11.92-1.02-19.86,0c-0.67,0.09-1.26,0.91-1.05,1.52c0.89,3.97,1.49,6.01,2.84,10.16
						c0.09,0.43,0.5,0.75,0.93,0.73c1.16-0.04,1.74-0.06,2.91-0.09c-0.03,1.11-0.04,1.66-0.06,2.77c1.31-0.02,1.96-0.03,3.27-0.04
						c-0.01,1.47-0.01,2.2-0.01,3.67c-2.43,1.61-3.67,2.43-6.13,4.03c-0.34,0.22-0.56,0.55-0.56,0.88c-0.01,1.54-0.01,2.31,0,3.85
						c0,0.66,0.45,1.11,1.12,1.11c0.67,0.01,1.11-0.43,1.1-1.1c-0.01-1.33-0.01-1.99-0.01-3.32c2.23-1.42,3.35-2.14,5.57-3.57
						c2.22,1.43,3.34,2.15,5.57,3.57c0,1.33,0,1.99,0,3.32c0,0.66,0.44,1.1,1.1,1.1c0.67-0.01,1.12-0.45,1.12-1.11
						c0.01-1.54,0.01-2.31,0-3.85c0-0.33-0.23-0.77-0.45-0.88c-2.5-1.6-3.76-2.42-6.24-4.03c0-1.47-0.01-2.2-0.01-3.67
						c1.31,0.01,1.96,0.01,3.27,0.04c-0.02-1.11-0.03-1.66-0.06-2.77c1.16,0.03,1.74,0.04,2.91,0.09c0.43,0.02,0.85-0.3,0.93-0.73
						c1.34-4.15,1.95-6.19,2.84-10.16C54.68,19.09,54.2,18.39,53.53,18.3L53.53,18.3z"/>
					
						<linearGradient id="XMLID_00000084528604334015828150000009771768376587543486_" gradientUnits="userSpaceOnUse" x1="41.5095" y1="60.9795" x2="45.6902" y2="60.9795">
						<stop  offset="0" style="stop-color:#FF9652"/>
						<stop  offset="0.4383" style="stop-color:#D26828"/>
						<stop  offset="0.7997" style="stop-color:#B4480B"/>
						<stop  offset="1" style="stop-color:#A83C00"/>
					</linearGradient>
					
						<path id="XMLID_00000003073505157074610850000005700850535163607230_" style="fill:url(#XMLID_00000084528604334015828150000009771768376587543486_);" d="
						M43.6,58.75c-1.17,0-2.11,0.99-2.09,2.21c0.02,1.22,0.96,2.24,2.09,2.24c1.13,0,2.07-1.02,2.09-2.24
						C45.71,59.74,44.77,58.75,43.6,58.75z"/>
					
						<linearGradient id="XMLID_00000166660766974865810220000010570888469197257877_" gradientUnits="userSpaceOnUse" x1="58.3211" y1="59.9272" x2="62.539" y2="59.9272">
						<stop  offset="0" style="stop-color:#FF9652"/>
						<stop  offset="0.4383" style="stop-color:#D26828"/>
						<stop  offset="0.7997" style="stop-color:#B4480B"/>
						<stop  offset="1" style="stop-color:#A83C00"/>
					</linearGradient>
					
						<path id="XMLID_00000174570160731913164980000004095862966767686797_" style="fill:url(#XMLID_00000166660766974865810220000010570888469197257877_);" d="
						M60.69,57.83c-1.17,0.13-2.22,1.17-2.35,2.34c-0.14,1.17,0.66,2.01,1.79,1.85s2.22-1.24,2.39-2.37
						C62.69,58.51,61.86,57.71,60.69,57.83z"/>
					
						<linearGradient id="XMLID_00000000211830628569377600000014990301979687550614_" gradientUnits="userSpaceOnUse" x1="24.6607" y1="59.9273" x2="28.8786" y2="59.9273">
						<stop  offset="0" style="stop-color:#FF9652"/>
						<stop  offset="0.4383" style="stop-color:#D26828"/>
						<stop  offset="0.7997" style="stop-color:#B4480B"/>
						<stop  offset="1" style="stop-color:#A83C00"/>
					</linearGradient>
					
						<path id="XMLID_00000042733358244941472040000014049485626753545614_" style="fill:url(#XMLID_00000000211830628569377600000014990301979687550614_);" d="
						M26.51,57.83c-1.17-0.13-2,0.68-1.83,1.81c0.17,1.13,1.26,2.21,2.39,2.37c1.13,0.16,1.93-0.68,1.79-1.85
						S27.68,57.96,26.51,57.83z"/>
					
						<linearGradient id="XMLID_00000135660143846665728760000003496018851776582583_" gradientUnits="userSpaceOnUse" x1="18.3838" y1="60.6749" x2="68.8158" y2="60.6749">
						<stop  offset="0" style="stop-color:#FF9652"/>
						<stop  offset="0.4383" style="stop-color:#D26828"/>
						<stop  offset="0.7997" style="stop-color:#B4480B"/>
						<stop  offset="1" style="stop-color:#A83C00"/>
					</linearGradient>
					
						<path id="XMLID_00000082367684240787472780000003418988960153006250_" style="fill:url(#XMLID_00000135660143846665728760000003496018851776582583_);" d="
						M61.67,52.05c-12.03,0.77-24.1,0.77-36.13,0c-4.49-0.29-7.87,2.63-7.02,6.58c0.88,4.05,5.22,8.24,9.17,9.06
						c10.48,2.17,21.34,2.17,31.82,0c3.95-0.81,8.32-5.11,9.17-9.06C69.54,54.68,66.15,51.76,61.67,52.05L61.67,52.05z M27.41,64.11
						c-2.21-0.36-4.43-2.56-4.81-4.78c-0.39-2.22,1.32-3.81,3.69-3.6c2.37,0.22,4.44,2.28,4.67,4.64S29.62,64.47,27.41,64.11z
						 M43.6,65.43c-2.21,0-4.1-2.08-4.18-4.52c-0.08-2.44,1.81-4.39,4.18-4.39c2.37,0,4.26,1.95,4.18,4.39
						C47.7,63.36,45.81,65.43,43.6,65.43z M59.79,64.11c-2.21,0.36-3.78-1.36-3.55-3.73c0.23-2.37,2.3-4.43,4.67-4.64
						c2.37-0.22,4.08,1.38,3.69,3.6C64.22,61.55,62.01,63.75,59.79,64.11z"/>
				</g>
			</g>
			<g>
				<g id="XMLID_00000074427393463125844630000008607576603587226752_">
					
						<linearGradient id="XMLID_00000036223029788042315220000008509596032461736370_" gradientUnits="userSpaceOnUse" x1="18.3838" y1="43.4278" x2="68.8158" y2="43.4278">
						<stop  offset="0" style="stop-color:#FF9652"/>
						<stop  offset="0.4383" style="stop-color:#D26828"/>
						<stop  offset="0.7997" style="stop-color:#B4480B"/>
						<stop  offset="1" style="stop-color:#A83C00"/>
					</linearGradient>
					
						<path id="XMLID_00000049220733695801578010000007229488535903849913_" style="fill:url(#XMLID_00000036223029788042315220000008509596032461736370_);" d="
						M53.53,50.27c3.31-0.09,4.96-0.15,8.27-0.31c0.22-0.01,0.33-0.02,0.55-0.03c0.15-2.62,0.18-3.93,0.18-6.54
						c-3.56,0-5.35,0-8.91-0.01C53.62,46.14,53.6,47.52,53.53,50.27z"/>
					
						<linearGradient id="XMLID_00000017488158308512913510000007832047852728544939_" gradientUnits="userSpaceOnUse" x1="18.3838" y1="43.4278" x2="68.8158" y2="43.4278">
						<stop  offset="0" style="stop-color:#FF9652"/>
						<stop  offset="0.4383" style="stop-color:#D26828"/>
						<stop  offset="0.7997" style="stop-color:#B4480B"/>
						<stop  offset="1" style="stop-color:#A83C00"/>
					</linearGradient>
					
						<path id="XMLID_00000041982990682923902340000015443245556702288575_" style="fill:url(#XMLID_00000017488158308512913510000007832047852728544939_);" d="
						M24.96,49.94c0.18,0.01,0.26,0.01,0.44,0.02c3.35,0.16,5.03,0.22,8.38,0.31c-0.08-2.75-0.1-4.13-0.09-6.89
						c-3.56,0-5.35,0-8.91,0.01C24.78,46.01,24.81,47.32,24.96,49.94z"/>
					
						<linearGradient id="XMLID_00000057138284625295646750000012809070128453068465_" gradientUnits="userSpaceOnUse" x1="18.3838" y1="43.4278" x2="68.8158" y2="43.4278">
						<stop  offset="0" style="stop-color:#FF9652"/>
						<stop  offset="0.4383" style="stop-color:#D26828"/>
						<stop  offset="0.7997" style="stop-color:#B4480B"/>
						<stop  offset="1" style="stop-color:#A83C00"/>
					</linearGradient>
					
						<path id="XMLID_00000003080300922916686490000008404539361877289652_" style="fill:url(#XMLID_00000057138284625295646750000012809070128453068465_);" d="
						M39.15,43.39c3.56,0,5.35,0,8.91,0c0,2.8-0.01,4.19-0.04,6.99c-3.53,0.04-5.29,0.04-8.82,0
						C39.15,47.58,39.15,46.18,39.15,43.39z"/>
					
						<linearGradient id="XMLID_00000117656985817570288900000007089018377949344917_" gradientUnits="userSpaceOnUse" x1="18.3838" y1="43.4278" x2="68.8158" y2="43.4278">
						<stop  offset="0" style="stop-color:#FF9652"/>
						<stop  offset="0.4383" style="stop-color:#D26828"/>
						<stop  offset="0.7997" style="stop-color:#B4480B"/>
						<stop  offset="1" style="stop-color:#A83C00"/>
					</linearGradient>
					
						<path id="XMLID_00000065047640657501743350000013514513216196851875_" style="fill:url(#XMLID_00000117656985817570288900000007089018377949344917_);" d="
						M53.53,18.3c-7.94-1.02-11.92-1.02-19.86,0c-0.67,0.09-1.26,0.91-1.05,1.52c0.89,3.97,1.49,6.01,2.84,10.16
						c0.09,0.43,0.5,0.75,0.93,0.73c1.16-0.04,1.74-0.06,2.91-0.09c-0.03,1.11-0.04,1.66-0.06,2.77c1.31-0.02,1.96-0.03,3.27-0.04
						c-0.01,1.47-0.01,2.2-0.01,3.67c-2.43,1.61-3.67,2.43-6.13,4.03c-0.34,0.22-0.56,0.55-0.56,0.88c-0.01,1.54-0.01,2.31,0,3.85
						c0,0.66,0.45,1.11,1.12,1.11c0.67,0.01,1.11-0.43,1.1-1.1c-0.01-1.33-0.01-1.99-0.01-3.32c2.23-1.42,3.35-2.14,5.57-3.57
						c2.22,1.43,3.34,2.15,5.57,3.57c0,1.33,0,1.99,0,3.32c0,0.66,0.44,1.1,1.1,1.1c0.67-0.01,1.12-0.45,1.12-1.11
						c0.01-1.54,0.01-2.31,0-3.85c0-0.33-0.23-0.77-0.45-0.88c-2.5-1.6-3.76-2.42-6.24-4.03c0-1.47-0.01-2.2-0.01-3.67
						c1.31,0.01,1.96,0.01,3.27,0.04c-0.02-1.11-0.03-1.66-0.06-2.77c1.16,0.03,1.74,0.04,2.91,0.09c0.43,0.02,0.85-0.3,0.93-0.73
						c1.34-4.15,1.95-6.19,2.84-10.16C54.68,19.09,54.2,18.39,53.53,18.3L53.53,18.3z"/>
					
						<linearGradient id="XMLID_00000008136903438181662790000008549327062041227693_" gradientUnits="userSpaceOnUse" x1="18.3838" y1="43.4278" x2="68.8158" y2="43.4278">
						<stop  offset="0" style="stop-color:#FF9652"/>
						<stop  offset="0.4383" style="stop-color:#D26828"/>
						<stop  offset="0.7997" style="stop-color:#B4480B"/>
						<stop  offset="1" style="stop-color:#A83C00"/>
					</linearGradient>
					
						<path id="XMLID_00000033370829543247471570000011887375212230645129_" style="fill:url(#XMLID_00000008136903438181662790000008549327062041227693_);" d="
						M43.6,58.75c-1.17,0-2.11,0.99-2.09,2.21c0.02,1.22,0.96,2.24,2.09,2.24c1.13,0,2.07-1.02,2.09-2.24
						C45.71,59.74,44.77,58.75,43.6,58.75z"/>
					
						<linearGradient id="XMLID_00000080895772181388482650000017535157655019211654_" gradientUnits="userSpaceOnUse" x1="18.3838" y1="43.4278" x2="68.8158" y2="43.4278">
						<stop  offset="0" style="stop-color:#FF9652"/>
						<stop  offset="0.4383" style="stop-color:#D26828"/>
						<stop  offset="0.7997" style="stop-color:#B4480B"/>
						<stop  offset="1" style="stop-color:#A83C00"/>
					</linearGradient>
					
						<path id="XMLID_00000057135034919394882150000017527485627108647353_" style="fill:url(#XMLID_00000080895772181388482650000017535157655019211654_);" d="
						M60.69,57.83c-1.17,0.13-2.22,1.17-2.35,2.34c-0.14,1.17,0.66,2.01,1.79,1.85s2.22-1.24,2.39-2.37
						C62.69,58.51,61.86,57.71,60.69,57.83z"/>
					
						<linearGradient id="XMLID_00000090294729107122192560000018195653074942774164_" gradientUnits="userSpaceOnUse" x1="18.3838" y1="43.4278" x2="68.8158" y2="43.4278">
						<stop  offset="0" style="stop-color:#FF9652"/>
						<stop  offset="0.4383" style="stop-color:#D26828"/>
						<stop  offset="0.7997" style="stop-color:#B4480B"/>
						<stop  offset="1" style="stop-color:#A83C00"/>
					</linearGradient>
					
						<path id="XMLID_00000168818061698293251060000014534571073286648973_" style="fill:url(#XMLID_00000090294729107122192560000018195653074942774164_);" d="
						M26.51,57.83c-1.17-0.13-2,0.68-1.83,1.81c0.17,1.13,1.26,2.21,2.39,2.37c1.13,0.16,1.93-0.68,1.79-1.85
						S27.68,57.96,26.51,57.83z"/>
					
						<linearGradient id="XMLID_00000160158887309700458390000002873686929574873007_" gradientUnits="userSpaceOnUse" x1="18.3838" y1="43.4278" x2="68.8158" y2="43.4278">
						<stop  offset="0" style="stop-color:#FF9652"/>
						<stop  offset="0.4383" style="stop-color:#D26828"/>
						<stop  offset="0.7997" style="stop-color:#B4480B"/>
						<stop  offset="1" style="stop-color:#A83C00"/>
					</linearGradient>
					
						<path id="XMLID_00000072250947023030485780000002985711413459979445_" style="fill:url(#XMLID_00000160158887309700458390000002873686929574873007_);" d="
						M61.67,52.05c-12.03,0.77-24.1,0.77-36.13,0c-4.49-0.29-7.87,2.63-7.02,6.58c0.88,4.05,5.22,8.24,9.17,9.06
						c10.48,2.17,21.34,2.17,31.82,0c3.95-0.81,8.32-5.11,9.17-9.06C69.54,54.68,66.15,51.76,61.67,52.05L61.67,52.05z M27.41,64.11
						c-2.21-0.36-4.43-2.56-4.81-4.78c-0.39-2.22,1.32-3.81,3.69-3.6c2.37,0.22,4.44,2.28,4.67,4.64S29.62,64.47,27.41,64.11z
						 M43.6,65.43c-2.21,0-4.1-2.08-4.18-4.52c-0.08-2.44,1.81-4.39,4.18-4.39c2.37,0,4.26,1.95,4.18,4.39
						C47.7,63.36,45.81,65.43,43.6,65.43z M59.79,64.11c-2.21,0.36-3.78-1.36-3.55-3.73c0.23-2.37,2.3-4.43,4.67-4.64
						c2.37-0.22,4.08,1.38,3.69,3.6C64.22,61.55,62.01,63.75,59.79,64.11z"/>
				</g>
			</g>
		</g>
		
			<radialGradient id="XMLID_00000129920392512810045790000008102177849302806669_" cx="1883.7406" cy="137.9108" r="16.9337" gradientTransform="matrix(1.7709 -0.1697 0.1697 1.7709 -3322.6157 110.9473)" gradientUnits="userSpaceOnUse">
			<stop  offset="0" style="stop-color:#FFFFFF"/>
			<stop  offset="1" style="stop-color:#FFFFFF;stop-opacity:0"/>
		</radialGradient>
		
			<circle id="XMLID_00000093173273986483935790000011439592892727120810_" style="fill:url(#XMLID_00000129920392512810045790000008102177849302806669_);" cx="36.76" cy="35.57" r="30.13"/>
	</g>
</g>
</svg>
