<?xml version="1.0" encoding="utf-8"?>
<!-- Generator: Adobe Illustrator 28.2.0, SVG Export Plug-In . SVG Version: 6.00 Build 0)  -->
<svg version="1.1" id="Camada_1" xmlns="http://www.w3.org/2000/svg" xmlns:xlink="http://www.w3.org/1999/xlink" x="0px" y="0px"
	 viewBox="0 0 85.49 86.71" style="enable-background:new 0 0 85.49 86.71;" xml:space="preserve">
<style type="text/css">
	.st0{fill:none;stroke:#FF9752;stroke-miterlimit:10;stroke-dasharray:5.732,5.732;}
	.st1{opacity:0.54;fill:url(#XMLID_00000152230553355581141160000011427831273544045745_);}
	.st2{fill:#FF9E51;}
	.st3{fill:url(#XMLID_00000089568139797219264990000013262157174563366540_);}
	.st4{fill:url(#XMLID_00000048466748981009459920000004996697221807680651_);}
	.st5{fill:url(#XMLID_00000076563986441267861030000000435759559002659496_);}
	.st6{fill:url(#XMLID_00000044149970242169579070000000435747279907135930_);}
	.st7{fill:url(#XMLID_00000016790478490175065710000005326100427811379591_);}
	.st8{fill:url(#XMLID_00000117660225413230565870000016461548464034057394_);}
	.st9{fill:url(#XMLID_00000052792150510116485500000008079454782434412453_);}
	.st10{fill:url(#XMLID_00000135663043658110656560000012381323686861489281_);}
	.st11{fill:url(#XMLID_00000071528640256300992550000013721057497404915083_);}
</style>
<g id="XMLID_00000027572858632824683640000000186214454319197097_">
	<g id="XMLID_00000028315801971942292300000010466639087528550805_">
		<circle class="st0" cx="42.75" cy="43.36" r="40.15"/>
	</g>
	<g id="XMLID_00000138571635633314004460000001211775851662351285_">
		
			<linearGradient id="XMLID_00000067935780693674678860000016496220604653627544_" gradientUnits="userSpaceOnUse" x1="461.6776" y1="-16.2655" x2="497.5099" y2="45.7977" gradientTransform="matrix(0.9954 -0.0954 0.0954 0.9954 -435.4522 74.5071)">
			<stop  offset="0" style="stop-color:#FFFFFF"/>
			<stop  offset="0.3497" style="stop-color:#D8D8D8"/>
			<stop  offset="0.6515" style="stop-color:#BBBBBB"/>
			<stop  offset="0.7561" style="stop-color:#D4D4D4"/>
			<stop  offset="0.9128" style="stop-color:#F3F3F3"/>
			<stop  offset="1" style="stop-color:#FFFFFF"/>
		</linearGradient>
		
			<circle id="XMLID_00000137853354615927169490000011032395527571245981_" style="opacity:0.54;fill:url(#XMLID_00000067935780693674678860000016496220604653627544_);" cx="43.36" cy="43.47" r="35.83"/>
		<g id="XMLID_00000117674301646198617980000016687360851972187811_">
			<g>
				<g id="XMLID_00000149357240563749239610000009031799679123288761_">
					<path id="XMLID_00000157266752179983762800000009378235476891703480_" class="st2" d="M45.22,37.44
						c-0.13,4.35-0.92,8.58-2.74,12.59c-2.43,5.36-6.25,9.4-10.99,12.05c-0.76,0.43-1.59,0.38-2.42-0.06
						c-7.09-3.73-12.13-9.36-13.96-16.52c-0.72-2.83-0.82-5.65-0.61-8.51c0.11-1.54,1.09-2.41,2.84-2.65
						c3.03-0.41,5.96-1.22,8.71-2.73c0.86-0.47,1.69-1.01,2.5-1.55c1.11-0.75,2.15-0.83,3.2-0.12c2.04,1.39,4.28,2.51,6.79,3.05
						c1.31,0.28,2.65,0.46,3.99,0.6c1.92,0.2,2.8,1.16,2.72,3.13C45.24,36.95,45.23,37.19,45.22,37.44z M32.13,38.28
						c-1.6,0.02-3.11,0.05-4.67,0.08c-0.04,1.76-0.05,3.49-0.06,5.25c-1.39,0-2.72,0.01-4.05,0.01c-1.29,0-1.29,0.01-1.29,1.24
						c0,1.05,0.01,2.11,0.04,3.2c0.25,0.02,0.43,0.03,0.62,0.04c1.38,0.03,2.77,0.07,4.15,0.06c0.49,0,0.68,0.12,0.66,0.63
						c-0.03,0.98,0.02,1.96,0.05,2.94c0.01,0.54,0.03,1.09,0.05,1.67c1.55,0.05,3.03,0.09,4.6,0.12c-0.03-1.77-0.06-3.53-0.07-5.33
						c0.28,0,0.47,0,0.66,0.01c1.4,0.01,2.8,0,4.2,0.03c0.43,0.01,0.54-0.14,0.53-0.54c-0.03-0.74-0.01-1.47-0.01-2.21
						c0-0.61,0-1.22,0-1.89c-1.85,0-3.62,0-5.45,0.01C32.09,41.78,32.1,40.05,32.13,38.28z"/>
					<path id="XMLID_00000076593876935217204460000005546951700811081648_" class="st2" d="M29.39,65.59
						c0.74,0.05,1.41,0.09,2.15,0.13c0.04,0.73,0.08,1.48,0.12,2.26c7.73,0.48,15.4,0.33,23.11-0.44c0.09-0.93,0.17-1.83,0.24-2.73
						c0.06-0.77,0.12-1.53,0.18-2.3c0.11-1.41,1.03-2.35,2.45-2.47c1.77-0.15,3.53-0.29,5.29-0.47c0.2-0.02,0.4-0.04,0.63-0.06
						c0.78-11.9,0.63-22.66-0.47-34.53c-2.19-0.29-4.38-0.54-6.6-0.75c-0.07-0.76-0.14-1.48-0.21-2.25
						c0.17,0.02,0.33,0.04,0.49,0.05c2,0.22,4,0.47,6,0.77c1.37,0.21,2.34,1.15,2.54,2.5c1.5,13.95,1.35,26.87-0.47,40.78
						c-0.24,1.41-1.24,2.42-2.64,2.66c-1.8,0.32-3.59,0.59-5.39,0.82c-8.28,1.05-16.57,1.28-24.86,0.68
						c-1.5-0.11-2.29-0.96-2.41-2.59C29.48,66.99,29.43,66.3,29.39,65.59z M56.52,67.23c2.22-2.02,4.41-3.97,6.74-5.97
						c-1.57,0.18-2.98,0.27-4.39,0.47c-0.96,0.14-1.83,0.98-1.98,1.9C56.71,64.8,56.66,65.95,56.52,67.23z"/>
					<path id="XMLID_00000159449558185450410390000007070583537642124436_" class="st2" d="M40,24.51c0-1.27-0.05-2.46,0.03-3.64
						c0.05-0.81,0.85-1.46,1.71-1.5c0.69-0.03,1.39-0.02,2.09,0.02c0.31,0.02,0.42-0.09,0.44-0.42c0.04-0.82,0.34-1.1,1.08-1.08
						c1.09,0.04,2.18,0.1,3.27,0.17c0.95,0.06,1.21,0.32,1.38,1.33c0.01,0.07,0.03,0.14,0.06,0.3c0.55,0.04,1.12,0.11,1.67,0.12
						c1.96,0.04,2.79,1.14,2.83,3c0.01,0.52,0.09,1.06,0.13,1.59c0.05,0.61-0.01,0.68-0.6,0.63c-1.65-0.12-3.31-0.23-4.96-0.31
						c-2.89-0.14-5.78-0.2-8.67-0.2C40.31,24.5,40.16,24.51,40,24.51z"/>
					<path id="XMLID_00000019679413097223136440000006787609817203051906_" class="st2" d="M43.75,54.89
						c0.46-0.86,0.87-1.65,1.32-2.42c0.07-0.11,0.33-0.15,0.5-0.15c3.67-0.05,7.34-0.13,11.01-0.25c0.89-0.03,1.77-0.06,2.66-0.1
						c1-0.04,1.53,0.37,1.49,1.16c-0.04,0.78-0.61,1.23-1.62,1.29c-4.1,0.21-8.19,0.35-12.29,0.43
						C45.82,54.86,44.82,54.88,43.75,54.89z"/>
					<path id="XMLID_00000057120347768619563720000013848140007751307922_" class="st2" d="M45.97,31.05c0.01,0,0.11-0.01,0.21-0.01
						c4.28,0.08,8.55,0.26,12.83,0.54c0.94,0.06,1.49,0.52,1.58,1.26c0.08,0.76-0.41,1.25-1.24,1.21c-1.76-0.08-3.53-0.17-5.3-0.23
						c-1.87-0.07-3.74-0.13-5.61-0.16c-0.3,0-0.43-0.13-0.61-0.36C47.23,32.52,46.58,31.78,45.97,31.05z"/>
					<path id="XMLID_00000003069509155259522260000017019028102385771667_" class="st2" d="M46.85,48.21
						c0.25-0.86,0.48-1.68,0.73-2.52c0.32,0,0.62,0,0.92,0c3.69-0.01,7.37-0.03,11.06-0.05c0.95-0.01,1.51,0.57,1.37,1.41
						c-0.08,0.5-0.48,0.89-1,0.99c-0.17,0.03-0.35,0.04-0.52,0.05c-4.01,0.08-8.02,0.13-12.04,0.16
						C47.19,48.24,47.04,48.22,46.85,48.21z"/>
					<path id="XMLID_00000010989014743717579850000014488111880795742131_" class="st2" d="M48.49,40.24
						c0.04-0.79,0.06-1.52,0.13-2.24c0.01-0.11,0.27-0.28,0.43-0.28c0.85-0.02,1.71,0.01,2.56,0.03c2.55,0.05,5.09,0.11,7.64,0.2
						c0.29,0.01,0.6,0.04,0.87,0.15c0.55,0.22,0.84,0.8,0.74,1.39c-0.09,0.51-0.54,0.9-1.12,0.91c-0.65,0.01-1.29-0.01-1.94-0.03
						c-2.89-0.05-5.78-0.09-8.66-0.11C48.94,40.24,48.75,40.24,48.49,40.24z"/>
					<path id="XMLID_00000119117399814549568160000014711931687192943016_" class="st2" d="M38.14,23.47
						c-2.21,0.03-4.38,0.1-6.62,0.22c-0.04,0.79-0.08,1.56-0.11,2.37c-0.76,0.03-1.45,0.07-2.18,0.11c0.05-0.97,0.04-1.96,0.2-2.95
						c0.15-0.91,0.97-1.68,1.84-1.75c2.29-0.18,4.58-0.24,6.9-0.28C38.16,21.95,38.15,22.67,38.14,23.47z"/>
				</g>
			</g>
			<g>
				<g id="XMLID_00000172403716026486327600000010089835361899930293_">
					
						<linearGradient id="XMLID_00000098915121711079124440000014700940187327279015_" gradientUnits="userSpaceOnUse" x1="14.4022" y1="44.2348" x2="66.3284" y2="44.2348">
						<stop  offset="0" style="stop-color:#FF9652"/>
						<stop  offset="0.4383" style="stop-color:#D26828"/>
						<stop  offset="0.7997" style="stop-color:#B4480B"/>
						<stop  offset="1" style="stop-color:#A83C00"/>
					</linearGradient>
					
						<path id="XMLID_00000135691181587456219980000001865642381479436696_" style="fill:url(#XMLID_00000098915121711079124440000014700940187327279015_);" d="
						M45.22,37.44c-0.13,4.35-0.92,8.58-2.74,12.59c-2.43,5.36-6.25,9.4-10.99,12.05c-0.76,0.43-1.59,0.38-2.42-0.06
						c-7.09-3.73-12.13-9.36-13.96-16.52c-0.72-2.83-0.82-5.65-0.61-8.51c0.11-1.54,1.09-2.41,2.84-2.65
						c3.03-0.41,5.96-1.22,8.71-2.73c0.86-0.47,1.69-1.01,2.5-1.55c1.11-0.75,2.15-0.83,3.2-0.12c2.04,1.39,4.28,2.51,6.79,3.05
						c1.31,0.28,2.65,0.46,3.99,0.6c1.92,0.2,2.8,1.16,2.72,3.13C45.24,36.95,45.23,37.19,45.22,37.44z M32.13,38.28
						c-1.6,0.02-3.11,0.05-4.67,0.08c-0.04,1.76-0.05,3.49-0.06,5.25c-1.39,0-2.72,0.01-4.05,0.01c-1.29,0-1.29,0.01-1.29,1.24
						c0,1.05,0.01,2.11,0.04,3.2c0.25,0.02,0.43,0.03,0.62,0.04c1.38,0.03,2.77,0.07,4.15,0.06c0.49,0,0.68,0.12,0.66,0.63
						c-0.03,0.98,0.02,1.96,0.05,2.94c0.01,0.54,0.03,1.09,0.05,1.67c1.55,0.05,3.03,0.09,4.6,0.12c-0.03-1.77-0.06-3.53-0.07-5.33
						c0.28,0,0.47,0,0.66,0.01c1.4,0.01,2.8,0,4.2,0.03c0.43,0.01,0.54-0.14,0.53-0.54c-0.03-0.74-0.01-1.47-0.01-2.21
						c0-0.61,0-1.22,0-1.89c-1.85,0-3.62,0-5.45,0.01C32.09,41.78,32.1,40.05,32.13,38.28z"/>
					
						<linearGradient id="XMLID_00000110447825635033583570000015323203480025314226_" gradientUnits="userSpaceOnUse" x1="14.4022" y1="44.2348" x2="66.3284" y2="44.2348">
						<stop  offset="0" style="stop-color:#FF9652"/>
						<stop  offset="0.4383" style="stop-color:#D26828"/>
						<stop  offset="0.7997" style="stop-color:#B4480B"/>
						<stop  offset="1" style="stop-color:#A83C00"/>
					</linearGradient>
					
						<path id="XMLID_00000052061973765270445540000006356879601225790131_" style="fill:url(#XMLID_00000110447825635033583570000015323203480025314226_);" d="
						M29.39,65.59c0.74,0.05,1.41,0.09,2.15,0.13c0.04,0.73,0.08,1.48,0.12,2.26c7.73,0.48,15.4,0.33,23.11-0.44
						c0.09-0.93,0.17-1.83,0.24-2.73c0.06-0.77,0.12-1.53,0.18-2.3c0.11-1.41,1.03-2.35,2.45-2.47c1.77-0.15,3.53-0.29,5.29-0.47
						c0.2-0.02,0.4-0.04,0.63-0.06c0.78-11.9,0.63-22.66-0.47-34.53c-2.19-0.29-4.38-0.54-6.6-0.75c-0.07-0.76-0.14-1.48-0.21-2.25
						c0.17,0.02,0.33,0.04,0.49,0.05c2,0.22,4,0.47,6,0.77c1.37,0.21,2.34,1.15,2.54,2.5c1.5,13.95,1.35,26.87-0.47,40.78
						c-0.24,1.41-1.24,2.42-2.64,2.66c-1.8,0.32-3.59,0.59-5.39,0.82c-8.28,1.05-16.57,1.28-24.86,0.68
						c-1.5-0.11-2.29-0.96-2.41-2.59C29.48,66.99,29.43,66.3,29.39,65.59z M56.52,67.23c2.22-2.02,4.41-3.97,6.74-5.97
						c-1.57,0.18-2.98,0.27-4.39,0.47c-0.96,0.14-1.83,0.98-1.98,1.9C56.71,64.8,56.66,65.95,56.52,67.23z"/>
					
						<linearGradient id="XMLID_00000036234615865034693160000018108975148416496258_" gradientUnits="userSpaceOnUse" x1="14.4022" y1="44.2348" x2="66.3284" y2="44.2348">
						<stop  offset="0" style="stop-color:#FF9652"/>
						<stop  offset="0.4383" style="stop-color:#D26828"/>
						<stop  offset="0.7997" style="stop-color:#B4480B"/>
						<stop  offset="1" style="stop-color:#A83C00"/>
					</linearGradient>
					
						<path id="XMLID_00000146496314660497409370000015437246267964440211_" style="fill:url(#XMLID_00000036234615865034693160000018108975148416496258_);" d="
						M40,24.51c0-1.27-0.05-2.46,0.03-3.64c0.05-0.81,0.85-1.46,1.71-1.5c0.69-0.03,1.39-0.02,2.09,0.02
						c0.31,0.02,0.42-0.09,0.44-0.42c0.04-0.82,0.34-1.1,1.08-1.08c1.09,0.04,2.18,0.1,3.27,0.17c0.95,0.06,1.21,0.32,1.38,1.33
						c0.01,0.07,0.03,0.14,0.06,0.3c0.55,0.04,1.12,0.11,1.67,0.12c1.96,0.04,2.79,1.14,2.83,3c0.01,0.52,0.09,1.06,0.13,1.59
						c0.05,0.61-0.01,0.68-0.6,0.63c-1.65-0.12-3.31-0.23-4.96-0.31c-2.89-0.14-5.78-0.2-8.67-0.2C40.31,24.5,40.16,24.51,40,24.51z
						"/>
					
						<linearGradient id="XMLID_00000081631788426404419110000009365694239686973867_" gradientUnits="userSpaceOnUse" x1="14.4022" y1="44.2348" x2="66.3284" y2="44.2348">
						<stop  offset="0" style="stop-color:#FF9652"/>
						<stop  offset="0.4383" style="stop-color:#D26828"/>
						<stop  offset="0.7997" style="stop-color:#B4480B"/>
						<stop  offset="1" style="stop-color:#A83C00"/>
					</linearGradient>
					
						<path id="XMLID_00000012439570090784613240000017699520899741810623_" style="fill:url(#XMLID_00000081631788426404419110000009365694239686973867_);" d="
						M43.75,54.89c0.46-0.86,0.87-1.65,1.32-2.42c0.07-0.11,0.33-0.15,0.5-0.15c3.67-0.05,7.34-0.13,11.01-0.25
						c0.89-0.03,1.77-0.06,2.66-0.1c1-0.04,1.53,0.37,1.49,1.16c-0.04,0.78-0.61,1.23-1.62,1.29c-4.1,0.21-8.19,0.35-12.29,0.43
						C45.82,54.86,44.82,54.88,43.75,54.89z"/>
					
						<linearGradient id="XMLID_00000099627279192006838240000012164641380440553637_" gradientUnits="userSpaceOnUse" x1="14.4022" y1="44.2348" x2="66.3284" y2="44.2348">
						<stop  offset="0" style="stop-color:#FF9652"/>
						<stop  offset="0.4383" style="stop-color:#D26828"/>
						<stop  offset="0.7997" style="stop-color:#B4480B"/>
						<stop  offset="1" style="stop-color:#A83C00"/>
					</linearGradient>
					
						<path id="XMLID_00000068635639393669169930000017861264195990014084_" style="fill:url(#XMLID_00000099627279192006838240000012164641380440553637_);" d="
						M45.97,31.05c0.01,0,0.11-0.01,0.21-0.01c4.28,0.08,8.55,0.26,12.83,0.54c0.94,0.06,1.49,0.52,1.58,1.26
						c0.08,0.76-0.41,1.25-1.24,1.21c-1.76-0.08-3.53-0.17-5.3-0.23c-1.87-0.07-3.74-0.13-5.61-0.16c-0.3,0-0.43-0.13-0.61-0.36
						C47.23,32.52,46.58,31.78,45.97,31.05z"/>
					
						<linearGradient id="XMLID_00000122681879193324028690000017469084790370305440_" gradientUnits="userSpaceOnUse" x1="14.4022" y1="44.2348" x2="66.3284" y2="44.2348">
						<stop  offset="0" style="stop-color:#FF9652"/>
						<stop  offset="0.4383" style="stop-color:#D26828"/>
						<stop  offset="0.7997" style="stop-color:#B4480B"/>
						<stop  offset="1" style="stop-color:#A83C00"/>
					</linearGradient>
					
						<path id="XMLID_00000009574605081480311990000001507644351537217212_" style="fill:url(#XMLID_00000122681879193324028690000017469084790370305440_);" d="
						M46.85,48.21c0.25-0.86,0.48-1.68,0.73-2.52c0.32,0,0.62,0,0.92,0c3.69-0.01,7.37-0.03,11.06-0.05
						c0.95-0.01,1.51,0.57,1.37,1.41c-0.08,0.5-0.48,0.89-1,0.99c-0.17,0.03-0.35,0.04-0.52,0.05c-4.01,0.08-8.02,0.13-12.04,0.16
						C47.19,48.24,47.04,48.22,46.85,48.21z"/>
					
						<linearGradient id="XMLID_00000164496005998623558500000008782090901813811094_" gradientUnits="userSpaceOnUse" x1="14.4022" y1="44.2348" x2="66.3284" y2="44.2348">
						<stop  offset="0" style="stop-color:#FF9652"/>
						<stop  offset="0.4383" style="stop-color:#D26828"/>
						<stop  offset="0.7997" style="stop-color:#B4480B"/>
						<stop  offset="1" style="stop-color:#A83C00"/>
					</linearGradient>
					
						<path id="XMLID_00000026146032917957816840000002147656891489595837_" style="fill:url(#XMLID_00000164496005998623558500000008782090901813811094_);" d="
						M48.49,40.24c0.04-0.79,0.06-1.52,0.13-2.24c0.01-0.11,0.27-0.28,0.43-0.28c0.85-0.02,1.71,0.01,2.56,0.03
						c2.55,0.05,5.09,0.11,7.64,0.2c0.29,0.01,0.6,0.04,0.87,0.15c0.55,0.22,0.84,0.8,0.74,1.39c-0.09,0.51-0.54,0.9-1.12,0.91
						c-0.65,0.01-1.29-0.01-1.94-0.03c-2.89-0.05-5.78-0.09-8.66-0.11C48.94,40.24,48.75,40.24,48.49,40.24z"/>
					
						<linearGradient id="XMLID_00000157309227402004978390000001705279874851487376_" gradientUnits="userSpaceOnUse" x1="14.4022" y1="44.2348" x2="66.3284" y2="44.2348">
						<stop  offset="0" style="stop-color:#FF9652"/>
						<stop  offset="0.4383" style="stop-color:#D26828"/>
						<stop  offset="0.7997" style="stop-color:#B4480B"/>
						<stop  offset="1" style="stop-color:#A83C00"/>
					</linearGradient>
					
						<path id="XMLID_00000109002194042788934030000014516298196441848726_" style="fill:url(#XMLID_00000157309227402004978390000001705279874851487376_);" d="
						M38.14,23.47c-2.21,0.03-4.38,0.1-6.62,0.22c-0.04,0.79-0.08,1.56-0.11,2.37c-0.76,0.03-1.45,0.07-2.18,0.11
						c0.05-0.97,0.04-1.96,0.2-2.95c0.15-0.91,0.97-1.68,1.84-1.75c2.29-0.18,4.58-0.24,6.9-0.28
						C38.16,21.95,38.15,22.67,38.14,23.47z"/>
				</g>
			</g>
		</g>
		
			<radialGradient id="XMLID_00000177470606590960629990000005983670513675649943_" cx="1918.9847" cy="23.1995" r="16.9337" gradientTransform="matrix(1.7709 -0.1697 0.1697 1.7709 -3365.9507 320.7534)" gradientUnits="userSpaceOnUse">
			<stop  offset="0" style="stop-color:#FFFFFF"/>
			<stop  offset="1" style="stop-color:#FFFFFF;stop-opacity:0"/>
		</radialGradient>
		
			<circle id="XMLID_00000178190432703736501500000010066907724389041845_" style="fill:url(#XMLID_00000177470606590960629990000005983670513675649943_);" cx="36.37" cy="36.25" r="30.13"/>
	</g>
</g>
</svg>
