<?xml version="1.0" encoding="utf-8"?>
<!-- Generator: Adobe Illustrator 28.2.0, SVG Export Plug-In . SVG Version: 6.00 Build 0)  -->
<svg version="1.1" id="Camada_1" xmlns="http://www.w3.org/2000/svg" xmlns:xlink="http://www.w3.org/1999/xlink" x="0px" y="0px"
	 viewBox="0 0 85.49 86.71" style="enable-background:new 0 0 85.49 86.71;" xml:space="preserve">
<style type="text/css">
	.st0{fill:none;stroke:#FF9752;stroke-miterlimit:10;stroke-dasharray:5.732,5.732;}
	.st1{opacity:0.54;fill:url(#XMLID_00000155116781212274242940000006924531455070760349_);}
	.st2{fill:url(#XMLID_00000047738774838865391790000002308475849693960326_);}
	.st3{fill:url(#XMLID_00000121959148531765905030000011953814920758161582_);}
</style>
<g id="XMLID_00000061463371144699689360000015087482501967326371_">
	<g id="XMLID_00000122712566505764536830000008097655793565309063_">
		
			<ellipse transform="matrix(0.1602 -0.9871 0.9871 0.1602 -6.3794 78.3764)" class="st0" cx="42.87" cy="42.94" rx="40.15" ry="40.15"/>
	</g>
	<g id="XMLID_00000175293768810711977780000011324291188870890916_">
		
			<linearGradient id="XMLID_00000159463347660744521000000005029625794925295545_" gradientUnits="userSpaceOnUse" x1="462.0294" y1="-16.7943" x2="497.9046" y2="45.3434" gradientTransform="matrix(0.9954 -0.0954 0.0954 0.9954 -435.4522 74.5071)">
			<stop  offset="0" style="stop-color:#FFFFFF"/>
			<stop  offset="0.3497" style="stop-color:#D8D8D8"/>
			<stop  offset="0.6515" style="stop-color:#BBBBBB"/>
			<stop  offset="0.7561" style="stop-color:#D4D4D4"/>
			<stop  offset="0.9128" style="stop-color:#F3F3F3"/>
			<stop  offset="1" style="stop-color:#FFFFFF"/>
		</linearGradient>
		
			<circle id="XMLID_00000151501109606770682850000010880740564362869140_" style="opacity:0.54;fill:url(#XMLID_00000159463347660744521000000005029625794925295545_);" cx="43.69" cy="42.94" r="35.87"/>
		<g id="XMLID_00000118397936475722652320000017649503602381612173_">
			
				<linearGradient id="XMLID_00000119092582879016898690000016430537027852429998_" gradientUnits="userSpaceOnUse" x1="13.7955" y1="45.1363" x2="73.257" y2="45.1363">
				<stop  offset="0" style="stop-color:#FF9652"/>
				<stop  offset="0.3851" style="stop-color:#DC6D21"/>
				<stop  offset="0.6515" style="stop-color:#C75504"/>
				<stop  offset="0.8373" style="stop-color:#B44602"/>
				<stop  offset="1" style="stop-color:#A83C00"/>
			</linearGradient>
			
				<path id="XMLID_00000124145774685614822680000016635188024053745325_" style="fill:url(#XMLID_00000119092582879016898690000016430537027852429998_);" d="
				M34.89,24.4c-2.04,0.14-4.06,2.18-4.4,4.47c-0.34,2.28,1.29,4.05,3.53,3.96c2.25-0.09,4.16-2.03,4.29-4.38
				C38.44,26.11,36.93,24.26,34.89,24.4z M52.17,24.4c-2.04-0.14-3.56,1.71-3.42,4.05c0.14,2.34,2.05,4.29,4.29,4.38
				c2.25,0.09,3.88-1.68,3.53-3.96C56.23,26.58,54.21,24.54,52.17,24.4z M29.3,34.33c-0.82,0.04-1.42,0.39-1.98,0.97
				c-0.56,0.58-1.03,1.42-1.37,2.33c-1.16,3.08-1.69,4.6-2.58,7.61c0.74,1.19,1.12,1.79,1.91,3c0.43-0.87,1.32-1.46,2.32-1.59
				c0.4-0.05,0.82-0.03,1.24,0.08c3.47,0.92,5.2,1.41,8.66,2.35c0.32-1.08,0.48-1.61,0.81-2.69c0.18-0.59,0.42-1.17,0.84-1.66
				c0.42-0.48,1.06-0.85,1.8-0.85c0.77,0,1.15,0,1.92,0c0-0.28,0-0.42,0-0.71c-1.46-0.31-2.55-1.62-2.53-3.17
				c0.01-1.03,0.5-1.96,1.24-2.56l0,0c-0.03-0.05-0.06-0.11-0.08-0.18c-0.25-0.94-0.62-1.8-1.11-2.37c-0.48-0.58-1.04-0.9-1.86-0.88
				c-0.81,0.01-1.22,0.02-2.03,0.04c-0.9,0.97-1.35,1.46-2.26,2.43c-0.13,0.14-0.3,0.22-0.48,0.22c-0.18,0-0.35-0.07-0.46-0.2
				c-0.81-0.92-1.2-1.38-1.97-2.28C30.52,34.27,30.11,34.29,29.3,34.33z M48.52,34.03c-0.82-0.01-1.38,0.31-1.86,0.88
				c-0.48,0.58-0.85,1.43-1.11,2.37v0c-0.02,0.06-0.04,0.12-0.08,0.18c0.74,0.6,1.23,1.53,1.24,2.56c0.02,1.55-1.08,2.86-2.53,3.17
				c0,0.28,0,0.42,0,0.71c0.77,0,1.15,0,1.92,0c0.75,0,1.39,0.36,1.8,0.85c0.42,0.48,0.66,1.07,0.84,1.66
				c0.33,1.08,0.49,1.62,0.81,2.69c3.45-0.95,5.19-1.43,8.66-2.35c0.42-0.11,0.84-0.14,1.24-0.08c1,0.13,1.89,0.72,2.32,1.59
				c0.78-1.21,1.17-1.81,1.91-3c-0.89-3-1.42-4.53-2.58-7.6c-0.34-0.91-0.81-1.75-1.37-2.33c-0.56-0.58-1.15-0.93-1.98-0.97
				c-0.78-0.04-1.17-0.06-1.95-0.09c-0.06,0.2-0.03,0.28-0.23,0.53c-0.39,0.49-1.16,0.94-2.34,0.91c-1.18-0.03-2.01-0.53-2.46-1.06
				c-0.23-0.27-0.21-0.34-0.3-0.55C49.69,34.05,49.3,34.04,48.52,34.03z M15.84,36.63c-0.29,0.03-0.59,0.13-0.89,0.29
				c-0.95,0.52-1.41,1.48-1.02,2.22c2.87,5.39,5.07,8.4,9.47,14.67c0.3,0.43,0.73,0.73,1.18,0.87c3.73,1.1,5.58,1.66,9.2,2.71
				c0.33,0.1,0.64,0.25,0.9,0.45c0.5,0.32,0.91,0.83,1.11,1.44c0.13,0.41,0.2,0.62,0.34,1.04c2.72,0.11,4.07,0.13,6.79,0.14
				c-0.02-2.6-0.02-3.9-0.03-6.5c0-0.31-0.12-0.57-0.31-0.77c-0.6-0.62-0.91-0.92-1.52-1.54c-0.17-0.17-0.37-0.3-0.58-0.39
				c-1.01-0.28-1.51-0.42-2.53-0.7c-0.11,0-0.22-0.03-0.31-0.09c-3.62-1.01-5.45-1.52-9.1-2.51c-0.99-0.27-1.96,0.26-2.18,1.2
				c-0.06,0.25-0.05,0.5,0,0.74c0.02,0.06,0.04,0.11,0.05,0.17c0.2,0.58,0.7,1.08,1.36,1.27c2.41,0.69,3.61,1.05,5.99,1.74
				c0.17,0.04,0.32,0.16,0.42,0.31c0.1,0.15,0.13,0.33,0.1,0.5c-0.04,0.17-0.14,0.31-0.28,0.39c-0.15,0.08-0.32,0.1-0.49,0.04
				c-2.37-0.7-3.57-1.06-5.97-1.77c-1.14-0.33-2.02-1.22-2.36-2.24c-3.65-5.49-5.42-8.14-7.86-12.99
				C17.03,36.81,16.47,36.56,15.84,36.63L15.84,36.63z M71.21,36.63c-0.63-0.07-1.18,0.18-1.45,0.7c-2.44,4.85-4.22,7.5-7.86,12.99
				c-0.34,1.02-1.23,1.91-2.36,2.24c-2.41,0.71-3.6,1.07-5.98,1.77l0,0c-0.17,0.06-0.35,0.04-0.49-0.04
				c-0.15-0.08-0.25-0.22-0.28-0.39c-0.04-0.17,0-0.35,0.1-0.5c0.1-0.15,0.25-0.26,0.42-0.31c2.38-0.69,3.58-1.04,5.99-1.74
				c0.68-0.2,1.19-0.71,1.37-1.31l0,0c0.01-0.03,0.01-0.07,0.02-0.1c0.06-0.25,0.07-0.51,0.01-0.78c-0.22-0.94-1.19-1.47-2.18-1.2
				c-4.8,1.3-7.21,1.99-11.95,3.3c-0.21,0.09-0.4,0.22-0.58,0.39c-0.61,0.62-0.92,0.92-1.52,1.54c-0.19,0.2-0.31,0.46-0.31,0.77
				c-0.01,2.6-0.02,3.9-0.03,6.5c2.72-0.01,4.07-0.04,6.79-0.14c0.13-0.41,0.2-0.62,0.34-1.04c0.2-0.61,0.61-1.12,1.11-1.44
				c0.27-0.2,0.57-0.36,0.9-0.45c3.63-1.06,5.47-1.62,9.2-2.72c0.45-0.14,0.87-0.44,1.17-0.87c4.4-6.27,6.59-9.28,9.47-14.67
				c0.39-0.74-0.07-1.7-1.02-2.22C71.8,36.75,71.5,36.66,71.21,36.63L71.21,36.63z M43.53,38.07c-1.03,0-1.88,0.86-1.88,1.94
				c-0.01,1.05,0.79,1.88,1.8,1.93c0.02,0,0.05,0,0.07,0c0.03,0,0.06,0,0.09,0c1.01-0.04,1.81-0.88,1.8-1.93
				C45.4,38.93,44.56,38.07,43.53,38.07L43.53,38.07z M40.95,45.21c-0.37,0-0.57,0.12-0.8,0.39c-0.23,0.27-0.43,0.7-0.58,1.19
				c-0.32,1.06-0.48,1.59-0.8,2.65c0.81,0.22,1.22,0.33,2.03,0.56l0,0c0.03,0.01,0.06,0.02,0.09,0.03c0.04,0.01,0.08,0.03,0.11,0.05
				c0.35,0.15,0.68,0.38,0.96,0.66c0.61,0.62,0.92,0.92,1.52,1.54h0c0.01,0.01,0.02,0.02,0.03,0.03c0,0,0.01,0.01,0.01,0.02l0,0l0,0
				c0.01-0.02,0.03-0.03,0.04-0.05c0.6-0.61,0.91-0.92,1.52-1.54c0.28-0.29,0.61-0.51,0.96-0.66c0.03-0.02,0.07-0.03,0.1-0.04
				c0.03-0.01,0.06-0.02,0.1-0.03c0.81-0.22,1.22-0.33,2.04-0.56c-0.31-1.06-0.47-1.59-0.8-2.65c-0.15-0.49-0.35-0.93-0.58-1.19
				c-0.23-0.27-0.43-0.39-0.8-0.39c-1.02,0-1.53,0-2.56,0v0c-0.01,0-0.01,0-0.02,0C42.5,45.21,41.98,45.21,40.95,45.21z
				 M34.92,61.56c-0.39-0.02-0.65,0.28-0.61,0.7c0.11,1.02,0.18,1.54,0.31,2.56c0.05,0.42,0.38,0.76,0.75,0.78
				c2.78,0.19,4.17,0.24,6.94,0.27c0.37,0,0.65-0.32,0.64-0.75c-0.01-1.34-0.02-2.01-0.03-3.35C39.72,61.77,38.12,61.73,34.92,61.56
				z M44.13,61.78c0,0.3,0,0.45-0.01,0.75l0,0l0,0c-0.01,1.04-0.01,1.56-0.02,2.6c0,0.43,0.27,0.75,0.64,0.75
				c2.78-0.03,4.17-0.08,6.94-0.27c0.37-0.02,0.69-0.36,0.75-0.79c0.13-1.02,0.19-1.54,0.31-2.56c0.05-0.42-0.22-0.72-0.61-0.7
				C48.93,61.73,47.33,61.77,44.13,61.78z"/>
		</g>
		
			<radialGradient id="XMLID_00000178163802296226165470000003742239832957762213_" cx="473.6903" cy="6.4143" r="30.1619" gradientTransform="matrix(0.9954 -0.0954 0.0954 0.9954 -435.4522 74.5071)" gradientUnits="userSpaceOnUse">
			<stop  offset="0" style="stop-color:#FFFFFF"/>
			<stop  offset="1" style="stop-color:#FFFFFF;stop-opacity:0"/>
		</radialGradient>
		
			<circle id="XMLID_00000004527735530273533160000005539281451535156151_" style="fill:url(#XMLID_00000178163802296226165470000003742239832957762213_);" cx="36.69" cy="35.72" r="30.16"/>
	</g>
</g>
</svg>
