<?xml version="1.0" encoding="utf-8"?>
<!-- Generator: Adobe Illustrator 28.2.0, SVG Export Plug-In . SVG Version: 6.00 Build 0)  -->
<svg version="1.1" id="Camada_1" xmlns="http://www.w3.org/2000/svg" xmlns:xlink="http://www.w3.org/1999/xlink" x="0px" y="0px"
	 viewBox="0 0 85.49 86.71" style="enable-background:new 0 0 85.49 86.71;" xml:space="preserve">
<style type="text/css">
	.st0{fill:none;stroke:#FF9752;stroke-miterlimit:10;stroke-dasharray:5.732,5.732;}
	.st1{opacity:0.54;fill:url(#XMLID_00000005979865184120483620000015525507890468923520_);}
	.st2{fill:url(#XMLID_00000121984150061804351920000000323326594436734605_);}
	.st3{fill:url(#XMLID_00000069359502747574144950000017369389115016359305_);}
	.st4{fill:url(#XMLID_00000022558388135718235970000004082552113894081166_);}
	.st5{fill:url(#XMLID_00000079460618066907377010000016114820585388445884_);}
	.st6{fill:url(#XMLID_00000013171946539648207510000000552018593526274998_);}
	.st7{fill:url(#XMLID_00000130648139046553130630000008296343103307799435_);}
	.st8{fill:url(#XMLID_00000068671077309140442780000007195346208925280148_);}
	.st9{fill:url(#XMLID_00000106829698340893818310000002092673911296231597_);}
	.st10{fill:url(#XMLID_00000002384779317451081990000009064996225995437704_);}
	.st11{fill:url(#XMLID_00000052090250729241056460000015990144254761160327_);}
	.st12{fill:url(#XMLID_00000085215523078860424840000010463330749292574102_);}
	.st13{fill:url(#XMLID_00000000923791165708938230000007714934268165172410_);}
	.st14{fill:url(#XMLID_00000018947411962536790710000000174734048903810463_);}
	.st15{fill:url(#XMLID_00000029042334042073137300000017147193863042375098_);}
	.st16{fill:url(#XMLID_00000181782656012639504960000015706947104091782298_);}
	.st17{fill:url(#XMLID_00000004531706552644319270000010276230966053005213_);}
	.st18{fill:url(#XMLID_00000049209200831636067460000002163376265919046536_);}
</style>
<g id="XMLID_00000106836190637658550680000004193044961383080854_">
	<g id="XMLID_00000171695570677404638740000017429116545937501824_">
		<circle class="st0" cx="42.75" cy="43.36" r="40.15"/>
	</g>
	<g id="XMLID_00000037675340995025634110000011156763958569375114_">
		
			<linearGradient id="XMLID_00000038394827314133996240000017022779362195616428_" gradientUnits="userSpaceOnUse" x1="444.2035" y1="14.2286" x2="515.8557" y2="14.2286" gradientTransform="matrix(0.9954 -0.0954 0.0954 0.9954 -435.4522 74.5071)">
			<stop  offset="0" style="stop-color:#FFFFFF"/>
			<stop  offset="0.3497" style="stop-color:#D8D8D8"/>
			<stop  offset="0.6515" style="stop-color:#BBBBBB"/>
			<stop  offset="0.7561" style="stop-color:#D4D4D4"/>
			<stop  offset="0.9128" style="stop-color:#F3F3F3"/>
			<stop  offset="1" style="stop-color:#FFFFFF"/>
		</linearGradient>
		
			<circle id="XMLID_00000057863909398245369910000002003064808230202035_" style="opacity:0.54;fill:url(#XMLID_00000038394827314133996240000017022779362195616428_);" cx="43.75" cy="42.89" r="35.83"/>
		<g id="XMLID_00000099643687855878760580000008941759846295659663_">
			<g>
				<g id="XMLID_00000119819311392519986190000011579477437880623768_">
					
						<linearGradient id="XMLID_00000077283737602446022890000017509138309035710379_" gradientUnits="userSpaceOnUse" x1="25.293" y1="69.5989" x2="58.4433" y2="69.5989">
						<stop  offset="0" style="stop-color:#FF9652"/>
						<stop  offset="0.4383" style="stop-color:#D26828"/>
						<stop  offset="0.7997" style="stop-color:#B4480B"/>
						<stop  offset="1" style="stop-color:#A83C00"/>
					</linearGradient>
					
						<path id="XMLID_00000052079702624198723560000012224504109981300414_" style="fill:url(#XMLID_00000077283737602446022890000017509138309035710379_);" d="
						M55.38,65.98c-9.22,3.53-18.18,2.08-27.24-0.95c-2.3-0.98-3.37-0.38-2.59,1.67c0.28,0.74,0.42,1.11,0.67,1.85
						c11.31,7.36,19.41,8.21,31.45,1.58c0.23-0.78,0.35-1.18,0.59-1.96C58.93,66.01,57.7,65.16,55.38,65.98L55.38,65.98z"/>
					
						<linearGradient id="XMLID_00000077292131313568030450000001951329097069088693_" gradientUnits="userSpaceOnUse" x1="34.4533" y1="33.5905" x2="54.5418" y2="33.5905">
						<stop  offset="0" style="stop-color:#FF9652"/>
						<stop  offset="0.4383" style="stop-color:#D26828"/>
						<stop  offset="0.7997" style="stop-color:#B4480B"/>
						<stop  offset="1" style="stop-color:#A83C00"/>
					</linearGradient>
					
						<path id="XMLID_00000039824186712273179640000010942278019781038732_" style="fill:url(#XMLID_00000077292131313568030450000001951329097069088693_);" d="
						M36.67,44.61c4.21,0.97,5.72,1.48,9.55,2.39c1.44,0.35,3.02-0.45,3.45-1.74c0.58-1.72,0.87-2.57,1.42-4.26
						c-3.3-0.86-5.49-3.44-5.53-6.46c-0.05-3.69,2.92-6.63,6.88-6.15c0.6,0.07,1.18,0.22,1.75,0.42c0.15-0.88,0.22-1.31,0.34-2.17
						c0.15-1.16-0.86-2.59-2.19-3.18c-3.55-1.55-5.26-2.24-8.37-3.26c-1.17-0.39-2.36,0.42-2.73,1.74
						c-1.86,6.69-4.28,13.2-6.68,19.72C34.11,42.93,35.09,44.25,36.67,44.61L36.67,44.61z"/>
					
						<linearGradient id="XMLID_00000019655824383556511590000011260523856411287183_" gradientUnits="userSpaceOnUse" x1="47.7986" y1="34.8385" x2="58.5099" y2="34.8385">
						<stop  offset="0" style="stop-color:#FF9652"/>
						<stop  offset="0.4383" style="stop-color:#D26828"/>
						<stop  offset="0.7997" style="stop-color:#B4480B"/>
						<stop  offset="1" style="stop-color:#A83C00"/>
					</linearGradient>
					
						<path id="XMLID_00000018234360409886373620000007026500599908143515_" style="fill:url(#XMLID_00000019655824383556511590000011260523856411287183_);" d="
						M52.66,30.38c-2.82-0.29-4.94,1.67-4.86,4.22c0.08,2.54,2.48,4.64,5.57,4.72c3.08,0.09,5.44-1.7,5.11-4.05
						C58.14,32.93,55.49,30.67,52.66,30.38z M53.17,35.85c-0.66-0.04-1.23-0.51-1.27-1.07c-0.04-0.55,0.46-0.97,1.11-0.92
						c0.65,0.05,1.23,0.53,1.28,1.07C54.35,35.47,53.85,35.88,53.17,35.85z"/>
					
						<linearGradient id="XMLID_00000152236693646692707770000013726872295482990258_" gradientUnits="userSpaceOnUse" x1="43.6566" y1="16.0639" x2="54.6659" y2="16.0639">
						<stop  offset="0" style="stop-color:#FF9652"/>
						<stop  offset="0.4383" style="stop-color:#D26828"/>
						<stop  offset="0.7997" style="stop-color:#B4480B"/>
						<stop  offset="1" style="stop-color:#A83C00"/>
					</linearGradient>
					
						<path id="XMLID_00000087409494864392866310000006256955886088591291_" style="fill:url(#XMLID_00000152236693646692707770000013726872295482990258_);" d="
						M44.43,15.7c0.72,0.27,1.08,0.41,1.82,0.72c-0.18,0.91-0.28,1.37-0.47,2.29c2.03,0.78,3.1,1.24,5.3,2.25
						c0.13-0.86,0.18-1.29,0.29-2.14c0.79,0.41,1.2,0.62,2.01,1.06c0.62,0.34,1.17,0.18,1.2-0.37c0.04-0.74,0.06-1.1,0.09-1.82
						c0.02-0.53-0.44-1.29-1.02-1.69c-3.49-2.36-5.14-3.36-8.3-4.78c-0.52-0.24-1.05,0.11-1.19,0.76c-0.18,0.87-0.27,1.3-0.46,2.17
						C43.54,14.81,43.87,15.49,44.43,15.7L44.43,15.7z"/>
					
						<linearGradient id="XMLID_00000024718144305105314410000009787224014644628651_" gradientUnits="userSpaceOnUse" x1="37.1285" y1="49.1903" x2="44.6449" y2="49.1903">
						<stop  offset="0" style="stop-color:#FF9652"/>
						<stop  offset="0.4383" style="stop-color:#D26828"/>
						<stop  offset="0.7997" style="stop-color:#B4480B"/>
						<stop  offset="1" style="stop-color:#A83C00"/>
					</linearGradient>
					
						<path id="XMLID_00000010298015191101877910000000741482532566279833_" style="fill:url(#XMLID_00000024718144305105314410000009787224014644628651_);" d="
						M44.64,48.75c-2.9-0.73-4.23-1.13-7.52-1.92c0.04,1.3,0.07,1.95,0.14,3.25c2.39,0.62,3.53,0.92,5.58,1.48
						C43.55,50.44,43.91,49.87,44.64,48.75z"/>
					
						<linearGradient id="XMLID_00000182497335609282123040000009469639655106637748_" gradientUnits="userSpaceOnUse" x1="25.8202" y1="59.9793" x2="32.3734" y2="59.9793">
						<stop  offset="0" style="stop-color:#FF9652"/>
						<stop  offset="0.4383" style="stop-color:#D26828"/>
						<stop  offset="0.7997" style="stop-color:#B4480B"/>
						<stop  offset="1" style="stop-color:#A83C00"/>
					</linearGradient>
					
						<path id="XMLID_00000109752666566416195100000018296888908799186360_" style="fill:url(#XMLID_00000182497335609282123040000009469639655106637748_);" d="
						M25.91,59.1c0.36,1.11,1.66,2.36,2.93,2.72c0.91,0.26,1.37,0.37,2.29,0.59c0.42-1.54,0.67-2.35,1.26-4
						c-1.87-0.26-2.82-0.42-4.65-0.79C26.35,57.34,25.55,57.97,25.91,59.1z"/>
					
						<linearGradient id="XMLID_00000063629054957856511340000012407481066909477533_" gradientUnits="userSpaceOnUse" x1="50.5224" y1="49.5216" x2="67.1528" y2="49.5216">
						<stop  offset="0" style="stop-color:#FF9652"/>
						<stop  offset="0.4383" style="stop-color:#D26828"/>
						<stop  offset="0.7997" style="stop-color:#B4480B"/>
						<stop  offset="1" style="stop-color:#A83C00"/>
					</linearGradient>
					
						<path id="XMLID_00000125590395931998129360000009580978292760913305_" style="fill:url(#XMLID_00000063629054957856511340000012407481066909477533_);" d="
						M62.03,47.17c-1.11,5.57-6.34,9.68-11.51,11.36c0.62,1.6,0.91,2.39,1.42,3.91c6.33-3.03,13.75-8.86,15.1-15.65
						c0.7-3.53-2.05-7.24-6.17-10.19c-0.13,1.42-1.05,2.63-2.51,3.48C60.85,42.05,62.33,44.48,62.03,47.17L62.03,47.17z"/>
					
						<linearGradient id="XMLID_00000055701292924966941910000018250524190930430361_" gradientUnits="userSpaceOnUse" x1="32.785" y1="61.4361" x2="50.6127" y2="61.4361">
						<stop  offset="0" style="stop-color:#FF9652"/>
						<stop  offset="0.4383" style="stop-color:#D26828"/>
						<stop  offset="0.7997" style="stop-color:#B4480B"/>
						<stop  offset="1" style="stop-color:#A83C00"/>
					</linearGradient>
					
						<path id="XMLID_00000079484808578069782580000011179327772028660406_" style="fill:url(#XMLID_00000055701292924966941910000018250524190930430361_);" d="
						M32.79,64.83c6.07,1.04,11.69,1.88,17.83,0.55c-1.04-3.21-1.69-4.91-3.16-8.38c-4.82,0.26-6.8,0.22-11.88-0.2
						C34.18,60.17,33.63,61.8,32.79,64.83z"/>
				</g>
			</g>
			<g>
				<g id="XMLID_00000047034464161097865900000005274988714731680921_">
					
						<linearGradient id="XMLID_00000036241247275349996070000010738384507828018862_" gradientUnits="userSpaceOnUse" x1="25.293" y1="42.8904" x2="67.1528" y2="42.8904">
						<stop  offset="0" style="stop-color:#FF9652"/>
						<stop  offset="0.4383" style="stop-color:#D26828"/>
						<stop  offset="0.7997" style="stop-color:#B4480B"/>
						<stop  offset="1" style="stop-color:#A83C00"/>
					</linearGradient>
					
						<path id="XMLID_00000001640092836769738180000014472140809979923844_" style="fill:url(#XMLID_00000036241247275349996070000010738384507828018862_);" d="
						M55.38,65.98c-9.22,3.53-18.18,2.08-27.24-0.95c-2.3-0.98-3.37-0.38-2.59,1.67c0.28,0.74,0.42,1.11,0.67,1.85
						c11.31,7.36,19.41,8.21,31.45,1.58c0.23-0.78,0.35-1.18,0.59-1.96C58.93,66.01,57.7,65.16,55.38,65.98L55.38,65.98z"/>
					
						<linearGradient id="XMLID_00000144338570143555562330000011427273263782986151_" gradientUnits="userSpaceOnUse" x1="25.293" y1="42.8904" x2="67.1528" y2="42.8904">
						<stop  offset="0" style="stop-color:#FF9652"/>
						<stop  offset="0.4383" style="stop-color:#D26828"/>
						<stop  offset="0.7997" style="stop-color:#B4480B"/>
						<stop  offset="1" style="stop-color:#A83C00"/>
					</linearGradient>
					
						<path id="XMLID_00000043421614115295098210000011750003218967397775_" style="fill:url(#XMLID_00000144338570143555562330000011427273263782986151_);" d="
						M36.67,44.61c4.21,0.97,5.72,1.48,9.55,2.39c1.44,0.35,3.02-0.45,3.45-1.74c0.58-1.72,0.87-2.57,1.42-4.26
						c-3.3-0.86-5.49-3.44-5.53-6.46c-0.05-3.69,2.92-6.63,6.88-6.15c0.6,0.07,1.18,0.22,1.75,0.42c0.15-0.88,0.22-1.31,0.34-2.17
						c0.15-1.16-0.86-2.59-2.19-3.18c-3.55-1.55-5.26-2.24-8.37-3.26c-1.17-0.39-2.36,0.42-2.73,1.74
						c-1.86,6.69-4.28,13.2-6.68,19.72C34.11,42.93,35.09,44.25,36.67,44.61L36.67,44.61z"/>
					
						<linearGradient id="XMLID_00000125595073201763827060000015559490288791942832_" gradientUnits="userSpaceOnUse" x1="25.293" y1="42.8904" x2="67.1528" y2="42.8904">
						<stop  offset="0" style="stop-color:#FF9652"/>
						<stop  offset="0.4383" style="stop-color:#D26828"/>
						<stop  offset="0.7997" style="stop-color:#B4480B"/>
						<stop  offset="1" style="stop-color:#A83C00"/>
					</linearGradient>
					
						<path id="XMLID_00000011743762151884259350000016011841813112162966_" style="fill:url(#XMLID_00000125595073201763827060000015559490288791942832_);" d="
						M52.66,30.38c-2.82-0.29-4.94,1.67-4.86,4.22c0.08,2.54,2.48,4.64,5.57,4.72c3.08,0.09,5.44-1.7,5.11-4.05
						C58.14,32.93,55.49,30.67,52.66,30.38z M53.17,35.85c-0.66-0.04-1.23-0.51-1.27-1.07c-0.04-0.55,0.46-0.97,1.11-0.92
						c0.65,0.05,1.23,0.53,1.28,1.07C54.35,35.47,53.85,35.88,53.17,35.85z"/>
					
						<linearGradient id="XMLID_00000098218807301694188210000010012131167695952041_" gradientUnits="userSpaceOnUse" x1="25.293" y1="42.8904" x2="67.1528" y2="42.8904">
						<stop  offset="0" style="stop-color:#FF9652"/>
						<stop  offset="0.4383" style="stop-color:#D26828"/>
						<stop  offset="0.7997" style="stop-color:#B4480B"/>
						<stop  offset="1" style="stop-color:#A83C00"/>
					</linearGradient>
					
						<path id="XMLID_00000003816998036553020120000018434004753543131828_" style="fill:url(#XMLID_00000098218807301694188210000010012131167695952041_);" d="
						M44.43,15.7c0.72,0.27,1.08,0.41,1.82,0.72c-0.18,0.91-0.28,1.37-0.47,2.29c2.03,0.78,3.1,1.24,5.3,2.25
						c0.13-0.86,0.18-1.29,0.29-2.14c0.79,0.41,1.2,0.62,2.01,1.06c0.62,0.34,1.17,0.18,1.2-0.37c0.04-0.74,0.06-1.1,0.09-1.82
						c0.02-0.53-0.44-1.29-1.02-1.69c-3.49-2.36-5.14-3.36-8.3-4.78c-0.52-0.24-1.05,0.11-1.19,0.76c-0.18,0.87-0.27,1.3-0.46,2.17
						C43.54,14.81,43.87,15.49,44.43,15.7L44.43,15.7z"/>
					
						<linearGradient id="XMLID_00000124846115111063715120000016093456100818399142_" gradientUnits="userSpaceOnUse" x1="25.293" y1="42.8904" x2="67.1528" y2="42.8904">
						<stop  offset="0" style="stop-color:#FF9652"/>
						<stop  offset="0.4383" style="stop-color:#D26828"/>
						<stop  offset="0.7997" style="stop-color:#B4480B"/>
						<stop  offset="1" style="stop-color:#A83C00"/>
					</linearGradient>
					
						<path id="XMLID_00000038384853353866986660000002107893570448181930_" style="fill:url(#XMLID_00000124846115111063715120000016093456100818399142_);" d="
						M44.64,48.75c-2.9-0.73-4.23-1.13-7.52-1.92c0.04,1.3,0.07,1.95,0.14,3.25c2.39,0.62,3.53,0.92,5.58,1.48
						C43.55,50.44,43.91,49.87,44.64,48.75z"/>
					
						<linearGradient id="XMLID_00000122678331312932487110000016381311632212044478_" gradientUnits="userSpaceOnUse" x1="25.293" y1="42.8904" x2="67.1528" y2="42.8904">
						<stop  offset="0" style="stop-color:#FF9652"/>
						<stop  offset="0.4383" style="stop-color:#D26828"/>
						<stop  offset="0.7997" style="stop-color:#B4480B"/>
						<stop  offset="1" style="stop-color:#A83C00"/>
					</linearGradient>
					
						<path id="XMLID_00000089555440846621473590000016041349529827645096_" style="fill:url(#XMLID_00000122678331312932487110000016381311632212044478_);" d="
						M25.91,59.1c0.36,1.11,1.66,2.36,2.93,2.72c0.91,0.26,1.37,0.37,2.29,0.59c0.42-1.54,0.67-2.35,1.26-4
						c-1.87-0.26-2.82-0.42-4.65-0.79C26.35,57.34,25.55,57.97,25.91,59.1z"/>
					
						<linearGradient id="XMLID_00000176753695275497692930000007137853772043000240_" gradientUnits="userSpaceOnUse" x1="25.293" y1="42.8904" x2="67.1528" y2="42.8904">
						<stop  offset="0" style="stop-color:#FF9652"/>
						<stop  offset="0.4383" style="stop-color:#D26828"/>
						<stop  offset="0.7997" style="stop-color:#B4480B"/>
						<stop  offset="1" style="stop-color:#A83C00"/>
					</linearGradient>
					
						<path id="XMLID_00000028301996857487791040000016976555149562869400_" style="fill:url(#XMLID_00000176753695275497692930000007137853772043000240_);" d="
						M62.03,47.17c-1.11,5.57-6.34,9.68-11.51,11.36c0.62,1.6,0.91,2.39,1.42,3.91c6.33-3.03,13.75-8.86,15.1-15.65
						c0.7-3.53-2.05-7.24-6.17-10.19c-0.13,1.42-1.05,2.63-2.51,3.48C60.85,42.05,62.33,44.48,62.03,47.17L62.03,47.17z"/>
					
						<linearGradient id="XMLID_00000149376977119496224200000012570214396056351896_" gradientUnits="userSpaceOnUse" x1="25.293" y1="42.8904" x2="67.1528" y2="42.8904">
						<stop  offset="0" style="stop-color:#FF9652"/>
						<stop  offset="0.4383" style="stop-color:#D26828"/>
						<stop  offset="0.7997" style="stop-color:#B4480B"/>
						<stop  offset="1" style="stop-color:#A83C00"/>
					</linearGradient>
					
						<path id="XMLID_00000016760947613041739870000016999579311465502603_" style="fill:url(#XMLID_00000149376977119496224200000012570214396056351896_);" d="
						M32.79,64.83c6.07,1.04,11.69,1.88,17.83,0.55c-1.04-3.21-1.69-4.91-3.16-8.38c-4.82,0.26-6.8,0.22-11.88-0.2
						C34.18,60.17,33.63,61.8,32.79,64.83z"/>
				</g>
			</g>
		</g>
		
			<radialGradient id="XMLID_00000085972638922812411530000003700825594118650013_" cx="473.7604" cy="6.3778" r="30.1256" gradientTransform="matrix(0.9954 -0.0954 0.0954 0.9954 -435.4522 74.5071)" gradientUnits="userSpaceOnUse">
			<stop  offset="0" style="stop-color:#FFFFFF"/>
			<stop  offset="1" style="stop-color:#FFFFFF;stop-opacity:0"/>
		</radialGradient>
		
			<circle id="XMLID_00000168090499195404770400000013014719332233593745_" style="fill:url(#XMLID_00000085972638922812411530000003700825594118650013_);" cx="36.76" cy="35.67" r="30.13"/>
	</g>
</g>
</svg>
