<?xml version="1.0" encoding="utf-8"?>
<!-- Generator: Adobe Illustrator 28.2.0, SVG Export Plug-In . SVG Version: 6.00 Build 0)  -->
<svg version="1.1" id="Camada_1" xmlns="http://www.w3.org/2000/svg" xmlns:xlink="http://www.w3.org/1999/xlink" x="0px" y="0px"
	 viewBox="0 0 85.49 86.71" style="enable-background:new 0 0 85.49 86.71;" xml:space="preserve">
<style type="text/css">
	.st0{fill:none;stroke:#FF9752;stroke-miterlimit:10;stroke-dasharray:5.732,5.732;}
	.st1{opacity:0.54;fill:url(#XMLID_00000068639431101977724020000014801003341144354973_);}
	.st2{fill:url(#XMLID_00000138574019341048676580000017746881473323796098_);}
	.st3{fill:url(#XMLID_00000166659217333073447850000008148883154752844447_);}
</style>
<g id="XMLID_00000046335831403885132430000014815471634035120804_">
	<g id="XMLID_00000141452144882709871770000011627847958443195020_">
		<circle class="st0" cx="42.75" cy="43.36" r="40.15"/>
	</g>
	<g id="XMLID_00000180338496102941024210000004503095562080087475_">
		
			<linearGradient id="XMLID_00000094605047111222698820000003454351911587382945_" gradientUnits="userSpaceOnUse" x1="443.7809" y1="14.9426" x2="515.4333" y2="14.9426" gradientTransform="matrix(0.9954 -0.0954 0.0954 0.9954 -435.4522 74.5071)">
			<stop  offset="0" style="stop-color:#FFFFFF"/>
			<stop  offset="0.3497" style="stop-color:#D8D8D8"/>
			<stop  offset="0.6515" style="stop-color:#BBBBBB"/>
			<stop  offset="0.7561" style="stop-color:#D4D4D4"/>
			<stop  offset="0.9128" style="stop-color:#F3F3F3"/>
			<stop  offset="1" style="stop-color:#FFFFFF"/>
		</linearGradient>
		
			<circle id="XMLID_00000087385353588543977900000000396188874148943294_" style="opacity:0.54;fill:url(#XMLID_00000094605047111222698820000003454351911587382945_);" cx="43.39" cy="43.64" r="35.83"/>
		<g id="XMLID_00000070797241621438422970000011047958744279817093_">
			
				<linearGradient id="XMLID_00000060002691585615576240000016174045757781094816_" gradientUnits="userSpaceOnUse" x1="16.8548" y1="43.2114" x2="58.4852" y2="43.2114">
				<stop  offset="0" style="stop-color:#FF9652"/>
				<stop  offset="0.4383" style="stop-color:#D26828"/>
				<stop  offset="0.7997" style="stop-color:#B4480B"/>
				<stop  offset="1" style="stop-color:#A83C00"/>
			</linearGradient>
			
				<path id="XMLID_00000033331274094068661710000014723484017609040275_" style="fill:url(#XMLID_00000060002691585615576240000016174045757781094816_);" d="
				M28.57,44.88c-1.74-1.72-3.53-3.41-5.38-5.02c-0.05-0.04-0.1-0.08-0.15-0.12c-0.66-0.44-1.5-0.64-2.36-0.58
				c-0.79,0.05-1.56,0.32-2.22,0.74c-0.65,0.42-1.15,0.96-1.41,1.56c-0.42,0.98-0.15,2.02,0.69,2.82c4.2,4.5,8.03,9.23,11.72,14.17
				c0.51,0.68,1.05,1.34,1.61,1.97c0.84,0.99,1.37,2.19,1.52,3.41c0.15,1.22-0.08,2.38-0.64,3.26c-0.18,0.28-0.27,0.42-0.44,0.69
				c-0.14,0.22-0.21,0.49-0.2,0.8c0.01,0.3,0.09,0.62,0.23,0.92c0.14,0.3,0.35,0.58,0.59,0.8c0.24,0.22,0.51,0.37,0.79,0.44
				c6.59,1.37,12.5,1.45,19.13,0.24c0.27-0.06,0.56-0.21,0.82-0.42s0.5-0.49,0.69-0.79c0.19-0.3,0.31-0.62,0.36-0.93
				c0.05-0.3,0.02-0.58-0.09-0.81c-0.53-1.14-0.82-1.73-1.44-2.94c-0.23-0.45-0.28-1.01-0.14-1.6c0.14-0.59,0.45-1.16,0.9-1.62
				c2.52-2.63,4.77-6.17,5-9.92c0.27-3.73,0.4-7.48,0.3-11.22c0-0.05-0.01-0.09-0.02-0.13c0.01-0.04,0.01-0.09,0.01-0.13
				c-0.18-4.98-0.62-9.89-1.32-14.82c-0.17-1.11-0.78-2.26-1.67-3.2c-0.89-0.94-1.98-1.6-3.05-1.78c-0.87-0.14-1.67,0.06-2.29,0.56
				c-0.08-0.72-0.13-1.09-0.22-1.81c-0.14-1.16-0.71-2.34-1.54-3.26c-0.83-0.92-1.85-1.49-2.85-1.56c-1.19-0.07-2.25,0.59-2.9,1.73
				c-0.79-1.12-1.95-1.76-3.14-1.66c-1.01,0.09-1.96,0.69-2.67,1.62c-0.72,0.93-1.13,2.11-1.14,3.26c0,0.01,0,0.02,0,0.03
				c-0.68-0.48-1.49-0.65-2.34-0.48c-1.04,0.21-2.06,0.9-2.85,1.86c-0.79,0.96-1.27,2.11-1.33,3.21
				c-0.29,5.44-0.47,10.87-0.54,16.32c0,0.04,0,0.09,0.01,0.13c0,0.04-0.01,0.09-0.01,0.13C28.56,42.41,28.56,43.23,28.57,44.88z
				 M43.65,65.99c0.13-2.15,0.19-3.23,0.29-5.39c0.01-0.24-0.06-0.46-0.21-0.63c-0.15-0.17-0.36-0.26-0.59-0.27
				c-0.22,0-0.44,0.09-0.61,0.26c-0.16,0.17-0.26,0.39-0.26,0.63c-0.08,2.15-0.12,3.23-0.22,5.38c-0.93-0.02-1.39-0.04-2.31-0.1
				c0.28-0.72,0.42-1.08,0.71-1.81l0,0c0.04-0.1,0.06-0.21,0.07-0.33c0.06-2.11,0.09-3.17,0.14-5.28c2.2,0.07,3.3,0.07,5.5,0.02
				c-0.11,2.11-0.18,3.17-0.33,5.29c-0.01,0.11,0,0.22,0.03,0.33c0.21,0.73,0.32,1.1,0.51,1.82C45.28,65.97,44.73,65.98,43.65,65.99
				z M41.61,53.11c0.01-0.49,0.4-0.89,0.88-0.89c0.69,0.01,1.04,0.01,1.74,0.01c0.48,0,0.86,0.4,0.84,0.89
				c-0.01,0.49-0.41,0.9-0.89,0.9c-0.69,0-1.04,0-1.73-0.01C41.98,54.01,41.6,53.6,41.61,53.11z M54.36,30.28
				c0.69,0.06,1.03,0.1,1.71,0.17c0.28,2.84,0.47,5.68,0.56,8.53c-0.71-0.02-1.06-0.04-1.77-0.06
				C54.79,36.04,54.62,33.15,54.36,30.28z M54.57,40.65c0.84,0.01,1.26,0.02,2.11,0.04c0.08,3.8-0.03,7.61-0.28,11.4
				c-0.27,3.3-1.95,6.34-4.26,8.66c-0.65,0.65-1.13,1.46-1.39,2.31c-0.26,0.85-0.29,1.72-0.09,2.48c-1.03,0.13-1.54,0.18-2.57,0.26
				c-0.24-0.91-0.36-1.36-0.62-2.28c0.17-2.06,0.25-3.1,0.37-5.16c0.45-0.14,0.84-0.46,1.09-0.88c0.43-0.02,0.65-0.03,1.09-0.06
				c0.47-0.03,0.88-0.45,0.92-0.94c0.03-0.48-0.32-0.85-0.8-0.84c-0.34,0.02-0.52,0.03-0.86,0.04c0.04-0.71,0.06-1.07,0.09-1.78
				c0.35-0.01,0.52-0.02,0.87-0.04c0.48-0.03,0.89-0.44,0.91-0.92c0.02-0.48-0.35-0.86-0.83-0.85c-0.35,0.01-0.52,0.02-0.87,0.03
				c0.03-0.71,0.04-1.07,0.06-1.78c0.35-0.01,0.53-0.01,0.88-0.02c0.49-0.02,0.89-0.43,0.91-0.91c0.02-0.48-0.37-0.87-0.85-0.86
				c-0.45,0.01-0.67,0.01-1.12,0.02c-0.22-0.4-0.61-0.7-1.06-0.81c0.02-1,0.02-1.5,0.03-2.51c1.68-0.47,2.53-0.71,4.22-1.17
				c0.24-0.07,0.45-0.23,0.56-0.46C53.68,42.43,53.98,41.83,54.57,40.65z M50.93,30.01c0.68,0.04,1.03,0.07,1.71,0.12
				c0.23,2.91,0.38,5.83,0.46,8.75c-0.71-0.02-1.06-0.03-1.76-0.04C51.28,35.89,51.14,32.95,50.93,30.01z M47.24,25.38
				c0.67,0.03,1,0.05,1.67,0.09c0.33,4.44,0.56,8.88,0.68,13.34c-0.7-0.01-1.06-0.02-1.76-0.02C47.72,34.3,47.53,29.84,47.24,25.38z
				 M43.91,25.29c0.67,0,1,0.01,1.66,0.02c0.24,4.48,0.41,8.96,0.49,13.45c-0.7,0-1.05-0.01-1.76-0.01
				C44.24,34.27,44.11,29.78,43.91,25.29z M40.58,25.35c0.67-0.03,1-0.03,1.66-0.05c0.15,4.49,0.25,8.97,0.31,13.46
				c-0.7,0-1.05,0.01-1.75,0.01C40.76,34.3,40.69,29.83,40.58,25.35z M37.26,25.55c0.66-0.05,1-0.08,1.66-0.12
				c0.06,4.45,0.11,8.91,0.13,13.36c-0.7,0.01-1.05,0.02-1.75,0.03C37.29,34.4,37.28,29.97,37.26,25.55z M42.56,40.56
				c0.01,2.03,0.01,3.05,0,5.08c0,0.24,0.09,0.47,0.25,0.63c0.16,0.17,0.39,0.26,0.62,0.26c0.23,0,0.46-0.09,0.63-0.26
				c0.17-0.17,0.26-0.4,0.26-0.63c0.01-2.03,0.01-3.05,0-5.09c2.76,0.01,5.51,0.03,8.27,0.06c-0.37,0.75-0.56,1.13-0.94,1.88
				c-1.79,0.48-2.69,0.73-4.48,1.23c-0.39,0.11-0.65,0.46-0.65,0.86c0,1.25-0.01,1.88-0.03,3.14c-2.46,0.02-3.69,0.02-6.14-0.01
				c0.01-1.25,0.01-1.88,0.01-3.13c0-0.4-0.26-0.75-0.65-0.86c-1.78-0.5-2.67-0.74-4.44-1.22c-0.38-0.75-0.56-1.13-0.94-1.87
				C37.09,40.6,39.82,40.57,42.56,40.56z M33.91,28.49c0.67-0.07,1.01-0.1,1.68-0.16c-0.02,3.51-0.03,7.02-0.03,10.53
				c-0.7,0.02-1.05,0.03-1.74,0.05C33.83,35.43,33.87,31.96,33.91,28.49z M30.55,28.89c0.67-0.09,1.01-0.14,1.68-0.22
				c-0.07,3.43-0.13,6.86-0.16,10.29c-0.7,0.02-1.04,0.04-1.74,0.06C30.38,35.65,30.45,32.27,30.55,28.89z M30.35,49.04
				c-0.04-2.78-0.06-5.55-0.03-8.33c0.83-0.02,1.25-0.03,2.08-0.04c0.6,1.17,0.9,1.77,1.5,2.97h0c0.11,0.22,0.31,0.39,0.55,0.45
				c1.67,0.46,2.5,0.7,4.17,1.17c0,1,0,1.5-0.01,2.5v0c-0.45,0.11-0.84,0.4-1.07,0.81c-0.45-0.01-0.67-0.02-1.11-0.03
				c-0.48-0.01-0.87,0.37-0.87,0.85c0,0.48,0.39,0.89,0.87,0.91c0.35,0.01,0.52,0.02,0.87,0.03c0,0.71,0,1.06,0,1.77
				c-0.35-0.01-0.52-0.02-0.86-0.04c-0.48-0.02-0.86,0.36-0.86,0.84c0,0.48,0.39,0.9,0.86,0.93c0.34,0.02,0.51,0.03,0.86,0.04
				c0,0.71,0,1.06-0.01,1.77c-0.34-0.02-0.51-0.03-0.85-0.05c-0.47-0.02-0.85,0.34-0.85,0.82s0.38,0.9,0.85,0.94
				c0.43,0.03,0.65,0.04,1.08,0.07c0.14,0.28,0.36,0.51,0.61,0.68c0.25,0.17,0.54,0.27,0.84,0.29c-0.03,2.03-0.04,3.05-0.08,5.09
				c-0.35,0.91-0.53,1.37-0.87,2.27c-1.52-0.14-2.27-0.23-3.78-0.47c0.14-2.05-0.57-4.2-2.01-5.86c-0.52-0.58-1.01-1.18-1.47-1.8
				c-2.79-3.75-5.65-7.45-8.73-10.97c1.1-1.17,1.66-1.79,2.78-3.07C26.68,45.36,28.52,47.18,30.35,49.04z"/>
		</g>
		
			<radialGradient id="XMLID_00000058562272672652916530000011985490308078557099_" cx="1457.2301" cy="-2.5435" r="16.9337" gradientTransform="matrix(1.7709 -0.1697 0.1697 1.7709 -2543.8174 288.1724)" gradientUnits="userSpaceOnUse">
			<stop  offset="0" style="stop-color:#FFFFFF"/>
			<stop  offset="1" style="stop-color:#FFFFFF;stop-opacity:0"/>
		</radialGradient>
		
			<circle id="XMLID_00000127731211771745931270000009736596310581536935_" style="fill:url(#XMLID_00000058562272672652916530000011985490308078557099_);" cx="36.4" cy="36.42" r="30.13"/>
	</g>
</g>
</svg>
