<?xml version="1.0" encoding="utf-8"?>
<!-- Generator: Adobe Illustrator 19.0.0, SVG Export Plug-In . SVG Version: 6.00 Build 0)  -->
<svg version="1.1" id="Camada_1" xmlns="http://www.w3.org/2000/svg" xmlns:xlink="http://www.w3.org/1999/xlink" x="0px" y="0px"
	 viewBox="0 0 94 104.9" style="enable-background:new 0 0 94 104.9;" xml:space="preserve">
<style type="text/css">
	.st0{fill:#FFEEE1;}
	.st1{fill:url(#XMLID_51_);}
	.st2{fill:#F69E57;}
	.st3{fill:url(#XMLID_52_);}
</style>
<g id="XMLID_88_">
	<g id="XMLID_1839_">
		<path id="XMLID_8_" class="st0" d="M45.8,91.9l0-1c1.9,0,3.8-0.1,5.6-0.4l0.1,1C49.7,91.7,47.7,91.9,45.8,91.9z M40,91.5
			c-1.9-0.3-3.8-0.7-5.7-1.2l0.3-1c1.8,0.5,3.7,0.9,5.5,1.2L40,91.5z M57.2,90.2l-0.3-1c1.8-0.5,3.6-1.2,5.3-2l0.4,0.9
			C60.9,89,59.1,89.7,57.2,90.2z M28.9,88.2c-1.8-0.8-3.5-1.7-5.1-2.8l0.5-0.8c1.6,1,3.3,1.9,5,2.7L28.9,88.2z M67.7,85.4l-0.5-0.8
			c1.6-1,3.1-2.2,4.5-3.4l0.7,0.8C70.9,83.2,69.4,84.4,67.7,85.4z M19.2,82c-1.5-1.3-2.8-2.6-4.1-4.1l0.8-0.7c1.2,1.4,2.6,2.8,4,4
			L19.2,82z M76.5,77.8l-0.8-0.7c1.2-1.4,2.4-2.9,3.4-4.5l0.8,0.5C78.9,74.8,77.7,76.4,76.5,77.8z M11.6,73.2c-1-1.6-2-3.3-2.8-5.1
			l0.9-0.4c0.8,1.7,1.7,3.4,2.7,5L11.6,73.2z M82.7,68.1l-0.9-0.4c0.8-1.7,1.4-3.5,2-5.3l1,0.3C84.2,64.5,83.5,66.3,82.7,68.1z
			 M6.7,62.7c-0.5-1.8-1-3.8-1.2-5.7l1-0.1c0.3,1.9,0.7,3.7,1.2,5.5L6.7,62.7z M86,57l-1-0.1c0.3-1.9,0.4-3.8,0.4-5.6V51h1v0.2
			C86.4,53.1,86.3,55.1,86,57z M5.1,51.3L5.1,51.3c0-2,0.1-3.9,0.4-5.8l1,0.1c-0.3,1.8-0.4,3.7-0.4,5.6L5.1,51.3z M85,45.4
			c-0.3-1.9-0.7-3.7-1.2-5.5l1-0.3c0.5,1.8,1,3.8,1.2,5.7L85,45.4z M7.7,40.1l-1-0.3c0.5-1.9,1.2-3.7,2-5.4l0.9,0.4
			C8.8,36.5,8.2,38.3,7.7,40.1z M81.8,34.6c-0.8-1.7-1.7-3.4-2.7-4.9l0.8-0.5c1.1,1.6,2,3.3,2.8,5.1L81.8,34.6z M12.3,29.8l-0.8-0.5
			c1-1.6,2.2-3.2,3.5-4.6l0.8,0.7C14.5,26.7,13.3,28.3,12.3,29.8z M75.6,25.1c-1.2-1.4-2.6-2.8-4-4l0.7-0.8c1.5,1.3,2.8,2.6,4.1,4.1
			L75.6,25.1z M19.7,21.3L19,20.6c1.5-1.3,3-2.4,4.6-3.5l0.5,0.8C22.6,18.9,21.1,20.1,19.7,21.3z M67.1,17.8c-1.6-1-3.3-1.9-5-2.7
			l0.4-0.9c1.8,0.8,3.5,1.7,5.1,2.8L67.1,17.8z M29.2,15.2l-0.4-0.9c1.8-0.8,3.6-1.5,5.4-2l0.3,1C32.7,13.7,30.9,14.4,29.2,15.2z
			 M56.8,13.1c-1.8-0.5-3.7-0.9-5.5-1.2l0.1-1c1.9,0.3,3.8,0.7,5.7,1.2L56.8,13.1z M40,12l-0.1-1c1.9-0.3,3.8-0.4,5.8-0.4l0,1
			C43.7,11.6,41.8,11.7,40,12z"/>
	</g>
	<g id="XMLID_1788_">
		
			<linearGradient id="XMLID_51_" gradientUnits="userSpaceOnUse" x1="464.1956" y1="-8.6969" x2="500.0278" y2="53.3663" gradientTransform="matrix(0.9954 -9.536995e-02 9.536995e-02 0.9954 -436.3016 74.9539)">
			<stop  offset="0" style="stop-color:#FF9657"/>
			<stop  offset="0.1002" style="stop-color:#F28B4C"/>
			<stop  offset="0.514" style="stop-color:#BF6223"/>
			<stop  offset="0.8267" style="stop-color:#9F480A"/>
			<stop  offset="1" style="stop-color:#933E00"/>
		</linearGradient>
		<circle id="XMLID_1842_" class="st1" cx="45.7" cy="51.2" r="35.8"/>
		<g id="XMLID_1791_">
			<g id="XMLID_1792_">
				<path id="XMLID_1841_" class="st2" d="M55.5,58.7c3.3-0.1,5-0.1,8.3-0.3c0.2,0,0.3,0,0.6,0c0.1-2.6,0.2-3.9,0.2-6.5
					c-3.6,0-5.3,0-8.9,0C55.6,54.6,55.6,55.9,55.5,58.7z"/>
				<path id="XMLID_1838_" class="st2" d="M27,58.4c0.2,0,0.3,0,0.4,0c3.4,0.2,5,0.2,8.4,0.3c-0.1-2.8-0.1-4.1-0.1-6.9
					c-3.6,0-5.3,0-8.9,0C26.8,54.4,26.8,55.7,27,58.4z"/>
				<path id="XMLID_1834_" class="st2" d="M41.1,51.8c3.6,0,5.3,0,8.9,0c0,2.8,0,4.2,0,7c-3.5,0-5.3,0-8.8,0
					C41.1,56,41.1,54.6,41.1,51.8z"/>
				<path id="XMLID_1832_" class="st2" d="M55.5,26.7c-7.9-1-11.9-1-19.9,0c-0.7,0.1-1.3,0.9-1,1.5c0.9,4,1.5,6,2.8,10.2
					c0.1,0.4,0.5,0.7,0.9,0.7c1.2,0,1.7-0.1,2.9-0.1c0,1.1,0,1.7-0.1,2.8c1.3,0,2,0,3.3,0c0,1.5,0,2.2,0,3.7c-2.4,1.6-3.7,2.4-6.1,4
					c-0.3,0.2-0.6,0.6-0.6,0.9c0,1.5,0,2.3,0,3.9c0,0.7,0.5,1.1,1.1,1.1c0.7,0,1.1-0.4,1.1-1.1c0-1.3,0-2,0-3.3
					c2.2-1.4,3.3-2.1,5.6-3.6c2.2,1.4,3.3,2.1,5.6,3.6c0,1.3,0,2,0,3.3c0,0.7,0.4,1.1,1.1,1.1c0.7,0,1.1-0.5,1.1-1.1
					c0-1.5,0-2.3,0-3.9c0-0.3-0.2-0.8-0.5-0.9c-2.5-1.6-3.8-2.4-6.2-4c0-1.5,0-2.2,0-3.7c1.3,0,2,0,3.3,0c0-1.1,0-1.7-0.1-2.8
					c1.2,0,1.7,0,2.9,0.1c0.4,0,0.8-0.3,0.9-0.7c1.3-4.1,1.9-6.2,2.8-10.2C56.7,27.5,56.2,26.8,55.5,26.7L55.5,26.7z"/>
				<path id="XMLID_1831_" class="st2" d="M45.6,67.2c-1.2,0-2.1,1-2.1,2.2c0,1.2,1,2.2,2.1,2.2c1.1,0,2.1-1,2.1-2.2
					C47.7,68.2,46.8,67.2,45.6,67.2z"/>
				<path id="XMLID_1829_" class="st2" d="M62.7,66.3c-1.2,0.1-2.2,1.2-2.4,2.3c-0.1,1.2,0.7,2,1.8,1.8c1.1-0.2,2.2-1.2,2.4-2.4
					C64.7,66.9,63.9,66.1,62.7,66.3z"/>
				<path id="XMLID_1828_" class="st2" d="M28.5,66.3c-1.2-0.1-2,0.7-1.8,1.8c0.2,1.1,1.3,2.2,2.4,2.4c1.1,0.2,1.9-0.7,1.8-1.8
					S29.7,66.4,28.5,66.3z"/>
				<path id="XMLID_1798_" class="st2" d="M63.7,60.5c-12,0.8-24.1,0.8-36.1,0c-4.5-0.3-7.9,2.6-7,6.6c0.9,4,5.2,8.2,9.2,9.1
					c10.5,2.2,21.3,2.2,31.8,0c4-0.8,8.3-5.1,9.2-9.1C71.5,63.1,68.2,60.2,63.7,60.5L63.7,60.5z M29.4,72.5
					c-2.2-0.4-4.4-2.6-4.8-4.8c-0.4-2.2,1.3-3.8,3.7-3.6c2.4,0.2,4.4,2.3,4.7,4.6C33.2,71.2,31.6,72.9,29.4,72.5z M45.6,73.9
					c-2.2,0-4.1-2.1-4.2-4.5c-0.1-2.4,1.8-4.4,4.2-4.4c2.4,0,4.3,1.9,4.2,4.4C49.7,71.8,47.8,73.9,45.6,73.9z M61.8,72.5
					c-2.2,0.4-3.8-1.4-3.5-3.7c0.2-2.4,2.3-4.4,4.7-4.6c2.4-0.2,4.1,1.4,3.7,3.6C66.2,70,64,72.2,61.8,72.5z"/>
			</g>
		</g>
		
			<radialGradient id="XMLID_52_" cx="1886.7664" cy="146.5145" r="16.9337" gradientTransform="matrix(1.7709 -0.1697 0.1697 1.7709 -3327.4377 104.6454)" gradientUnits="userSpaceOnUse">
			<stop  offset="0" style="stop-color:#FFFFFF"/>
			<stop  offset="1" style="stop-color:#FFFFFF;stop-opacity:0"/>
		</radialGradient>
		<circle id="XMLID_1789_" class="st3" cx="38.8" cy="44" r="30.1"/>
	</g>
</g>
</svg>
