<?xml version="1.0" encoding="utf-8"?>
<!-- Generator: Adobe Illustrator 19.0.0, SVG Export Plug-In . SVG Version: 6.00 Build 0)  -->
<svg version="1.1" id="Camada_1" xmlns="http://www.w3.org/2000/svg" xmlns:xlink="http://www.w3.org/1999/xlink" x="0px" y="0px"
	 viewBox="0 0 94 104.9" style="enable-background:new 0 0 94 104.9;" xml:space="preserve">
<style type="text/css">
	.st0{fill:#FFEEE1;}
	.st1{fill:url(#XMLID_51_);}
	.st2{fill:#F69E57;}
	.st3{fill:url(#XMLID_52_);}
</style>
<g id="XMLID_71_">
	<g id="XMLID_1815_">
		<path id="XMLID_8_" class="st0" d="M47.8,92.7l0-1c1.9,0,3.8-0.1,5.6-0.4l0.1,1C51.6,92.5,49.7,92.6,47.8,92.7z M42,92.2
			c-1.9-0.3-3.8-0.7-5.7-1.2l0.3-1c1.8,0.5,3.7,0.9,5.5,1.2L42,92.2z M59.2,91l-0.3-1c1.8-0.5,3.6-1.2,5.3-2l0.4,0.9
			C62.9,89.8,61.1,90.5,59.2,91z M30.9,89c-1.8-0.8-3.5-1.7-5.1-2.8l0.5-0.8c1.6,1,3.3,1.9,5,2.7L30.9,89z M69.7,86.2l-0.5-0.8
			c1.6-1,3.1-2.2,4.5-3.4l0.7,0.8C72.9,84,71.3,85.1,69.7,86.2z M21.1,82.8c-1.5-1.3-2.8-2.6-4.1-4.1l0.8-0.7c1.2,1.4,2.6,2.8,4,4
			L21.1,82.8z M78.4,78.6L77.7,78c1.2-1.4,2.4-2.9,3.4-4.5l0.8,0.5C80.9,75.6,79.7,77.2,78.4,78.6z M13.6,74c-1-1.6-2-3.3-2.8-5.1
			l0.9-0.4c0.8,1.7,1.7,3.4,2.7,5L13.6,74z M84.7,68.9l-0.9-0.4c0.8-1.7,1.4-3.5,2-5.3l1,0.3C86.2,65.3,85.5,67.1,84.7,68.9z
			 M8.7,63.5c-0.5-1.8-1-3.8-1.2-5.7l1-0.1c0.3,1.9,0.7,3.7,1.2,5.5L8.7,63.5z M88,57.8l-1-0.1c0.3-1.9,0.4-3.8,0.4-5.6v-0.2h1V52
			C88.4,53.9,88.2,55.9,88,57.8z M7.4,52.1l-0.3,0c0-1.9,0.1-3.8,0.4-5.7l1,0.1c-0.3,1.8-0.4,3.7-0.4,5.6L7.4,52.1z M86.9,46.2
			c-0.3-1.9-0.7-3.7-1.2-5.5l1-0.3c0.5,1.8,1,3.8,1.2,5.7L86.9,46.2z M9.6,40.9l-1-0.3c0.5-1.9,1.2-3.7,2-5.4l0.9,0.4
			C10.8,37.3,10.2,39.1,9.6,40.9z M83.7,35.4C82.9,33.7,82,32,81,30.4l0.8-0.5c1.1,1.6,2,3.3,2.8,5.1L83.7,35.4z M14.3,30.6
			l-0.8-0.5c1-1.6,2.2-3.2,3.5-4.6l0.8,0.7C16.5,27.5,15.3,29.1,14.3,30.6z M77.6,25.9c-1.2-1.4-2.6-2.8-4-4l0.7-0.8
			c1.5,1.3,2.8,2.6,4.1,4.1L77.6,25.9z M21.7,22.1L21,21.3c1.5-1.3,3-2.4,4.6-3.5l0.5,0.8C24.6,19.7,23.1,20.9,21.7,22.1z M69,18.6
			c-1.6-1-3.3-1.9-5-2.7l0.4-0.9c1.8,0.8,3.5,1.7,5.1,2.8L69,18.6z M31.1,16l-0.4-0.9c1.8-0.8,3.6-1.5,5.4-2l0.3,1
			C34.6,14.5,32.9,15.2,31.1,16z M58.8,13.9c-1.8-0.5-3.7-0.9-5.5-1.2l0.1-1c1.9,0.3,3.8,0.7,5.7,1.2L58.8,13.9z M42,12.8l-0.1-1
			c1.9-0.3,3.8-0.4,5.8-0.4l0,1C45.7,12.4,43.8,12.5,42,12.8z"/>
	</g>
	<g id="XMLID_2986_">
		
			<linearGradient id="XMLID_51_" gradientUnits="userSpaceOnUse" x1="466.1761" y1="-7.7111" x2="502.0081" y2="54.3519" gradientTransform="matrix(0.9954 -9.536995e-02 9.536995e-02 0.9954 -436.3016 74.9539)">
			<stop  offset="0" style="stop-color:#FF9657"/>
			<stop  offset="0.1002" style="stop-color:#F28B4C"/>
			<stop  offset="0.514" style="stop-color:#BF6223"/>
			<stop  offset="0.8267" style="stop-color:#9F480A"/>
			<stop  offset="1" style="stop-color:#933E00"/>
		</linearGradient>
		<circle id="XMLID_3002_" class="st1" cx="47.8" cy="52" r="35.8"/>
		<g id="XMLID_2988_">
			<g id="XMLID_2989_">
				<path id="XMLID_3001_" class="st2" d="M59.4,75.1c-9.2,3.5-18.2,2.1-27.2-0.9c-2.3-1-3.4-0.4-2.6,1.7c0.3,0.7,0.4,1.1,0.7,1.8
					c11.3,7.4,19.4,8.2,31.5,1.6c0.2-0.8,0.3-1.2,0.6-2C63,75.1,61.8,74.3,59.4,75.1L59.4,75.1z"/>
				<path id="XMLID_3000_" class="st2" d="M40.7,53.7c4.2,1,5.7,1.5,9.5,2.4c1.4,0.3,3-0.5,3.4-1.7c0.6-1.7,0.9-2.6,1.4-4.3
					c-3.3-0.9-5.5-3.4-5.5-6.5c-0.1-3.7,2.9-6.6,6.9-6.2c0.6,0.1,1.2,0.2,1.8,0.4c0.2-0.9,0.2-1.3,0.3-2.2c0.2-1.2-0.9-2.6-2.2-3.2
					c-3.6-1.5-5.3-2.2-8.4-3.3c-1.2-0.4-2.4,0.4-2.7,1.7c-1.9,6.7-4.3,13.2-6.7,19.7C38.2,52,39.2,53.4,40.7,53.7L40.7,53.7z"/>
				<path id="XMLID_2996_" class="st2" d="M56.7,39.5c-2.8-0.3-4.9,1.7-4.9,4.2c0.1,2.5,2.5,4.6,5.6,4.7c3.1,0.1,5.4-1.7,5.1-4
					C62.2,42,59.5,39.8,56.7,39.5z M57.2,45c-0.7,0-1.2-0.5-1.3-1.1c0-0.6,0.5-1,1.1-0.9c0.7,0,1.2,0.5,1.3,1.1
					C58.4,44.6,57.9,45,57.2,45z"/>
				<path id="XMLID_2995_" class="st2" d="M48.5,24.8c0.7,0.3,1.1,0.4,1.8,0.7c-0.2,0.9-0.3,1.4-0.5,2.3c2,0.8,3.1,1.2,5.3,2.3
					c0.1-0.9,0.2-1.3,0.3-2.1c0.8,0.4,1.2,0.6,2,1.1c0.6,0.3,1.2,0.2,1.2-0.4c0-0.7,0.1-1.1,0.1-1.8c0-0.5-0.4-1.3-1-1.7
					c-3.5-2.4-5.1-3.4-8.3-4.8c-0.5-0.2-1,0.1-1.2,0.8c-0.2,0.9-0.3,1.3-0.5,2.2C47.6,23.9,47.9,24.6,48.5,24.8L48.5,24.8z"/>
				<path id="XMLID_2993_" class="st2" d="M48.7,57.9c-2.9-0.7-4.2-1.1-7.5-1.9c0,1.3,0.1,1.9,0.1,3.2c2.4,0.6,3.5,0.9,5.6,1.5
					C47.6,59.5,48,59,48.7,57.9z"/>
				<path id="XMLID_2992_" class="st2" d="M30,68.2c0.4,1.1,1.7,2.4,2.9,2.7c0.9,0.3,1.4,0.4,2.3,0.6c0.4-1.5,0.7-2.3,1.3-4
					c-1.9-0.3-2.8-0.4-4.7-0.8C30.4,66.5,29.6,67.1,30,68.2z"/>
				<path id="XMLID_2991_" class="st2" d="M66.1,56.3C65,61.9,59.7,66,54.6,67.6c0.6,1.6,0.9,2.4,1.4,3.9c6.3-3,13.7-8.9,15.1-15.6
					c0.7-3.5-2-7.2-6.2-10.2c-0.1,1.4-1,2.6-2.5,3.5C64.9,51.2,66.4,53.6,66.1,56.3L66.1,56.3z"/>
				<path id="XMLID_2990_" class="st2" d="M36.8,73.9c6.1,1,11.7,1.9,17.8,0.6c-1-3.2-1.7-4.9-3.2-8.4c-4.8,0.3-6.8,0.2-11.9-0.2
					C38.2,69.3,37.7,70.9,36.8,73.9z"/>
			</g>
		</g>
		
			<radialGradient id="XMLID_52_" cx="477.8229" cy="15.4696" r="30.1256" gradientTransform="matrix(0.9954 -9.536995e-02 9.536995e-02 0.9954 -436.3016 74.9539)" gradientUnits="userSpaceOnUse">
			<stop  offset="0" style="stop-color:#FFFFFF"/>
			<stop  offset="1" style="stop-color:#FFFFFF;stop-opacity:0"/>
		</radialGradient>
		<circle id="XMLID_2987_" class="st3" cx="40.8" cy="44.8" r="30.1"/>
	</g>
</g>
</svg>
