<?xml version="1.0" encoding="utf-8"?>
<!-- Generator: Adobe Illustrator 19.0.0, SVG Export Plug-In . SVG Version: 6.00 Build 0)  -->
<svg version="1.1" id="Camada_1" xmlns="http://www.w3.org/2000/svg" xmlns:xlink="http://www.w3.org/1999/xlink" x="0px" y="0px"
	 viewBox="0 0 94 104.9" style="enable-background:new 0 0 94 104.9;" xml:space="preserve">
<style type="text/css">
	.st0{fill:#FFEEE1;}
	.st1{fill:url(#XMLID_51_);}
	.st2{fill:#F69E57;}
	.st3{fill:url(#XMLID_52_);}
</style>
<g id="XMLID_95_">
	<g id="XMLID_1845_">
		<path id="XMLID_8_" class="st0" d="M47.5,93.2l0-1c1.9,0,3.8-0.1,5.6-0.4l0.1,1C51.3,93.1,49.4,93.2,47.5,93.2z M41.7,92.8
			c-1.9-0.3-3.8-0.7-5.7-1.2l0.3-1c1.8,0.5,3.7,0.9,5.5,1.2L41.7,92.8z M58.9,91.6l-0.3-1c1.8-0.5,3.6-1.2,5.3-2l0.4,0.9
			C62.6,90.4,60.7,91,58.9,91.6z M30.6,89.6c-1.8-0.8-3.5-1.7-5.1-2.8L26,86c1.6,1,3.3,1.9,5,2.7L30.6,89.6z M69.4,86.8l-0.5-0.8
			c1.6-1,3.1-2.2,4.5-3.4l0.7,0.8C72.6,84.6,71,85.7,69.4,86.8z M20.8,83.3c-1.5-1.3-2.8-2.6-4.1-4.1l0.8-0.7c1.2,1.4,2.6,2.8,4,4
			L20.8,83.3z M78.1,79.2l-0.8-0.7c1.2-1.4,2.4-2.9,3.4-4.5l0.8,0.5C80.6,76.2,79.4,77.7,78.1,79.2z M13.2,74.6
			c-1-1.6-2-3.3-2.8-5.1l0.9-0.4c0.8,1.7,1.7,3.4,2.7,5L13.2,74.6z M84.4,69.5L83.5,69c0.8-1.7,1.4-3.5,2-5.3l1,0.3
			C85.9,65.9,85.2,67.7,84.4,69.5z M8.4,64.1c-0.5-1.8-1-3.8-1.2-5.7l1-0.1c0.3,1.9,0.7,3.7,1.2,5.5L8.4,64.1z M87.7,58.4l-1-0.1
			c0.3-1.9,0.4-3.8,0.4-5.6l0-0.2h1l0,0.2C88.1,54.5,87.9,56.5,87.7,58.4z M6.8,52.7L6.8,52.7c0-2,0.1-3.9,0.4-5.8l1,0.1
			c-0.3,1.8-0.4,3.7-0.4,5.6L6.8,52.7z M86.6,46.8c-0.3-1.9-0.7-3.7-1.2-5.5l1-0.3c0.5,1.8,1,3.8,1.2,5.7L86.6,46.8z M9.3,41.5
			l-1-0.3c0.5-1.9,1.2-3.7,2-5.4l0.9,0.4C10.5,37.9,9.9,39.7,9.3,41.5z M83.4,36c-0.8-1.7-1.7-3.4-2.7-4.9l0.8-0.5
			c1.1,1.6,2,3.3,2.8,5.1L83.4,36z M14,31.2l-0.8-0.5c1-1.6,2.2-3.2,3.5-4.6l0.8,0.7C16.1,28.1,15,29.6,14,31.2z M77.3,26.5
			c-1.2-1.4-2.6-2.8-4-4l0.7-0.8c1.5,1.3,2.8,2.6,4.1,4.1L77.3,26.5z M21.4,22.7l-0.7-0.8c1.5-1.3,3-2.4,4.6-3.5l0.5,0.8
			C24.3,20.3,22.8,21.4,21.4,22.7z M68.7,19.1c-1.6-1-3.3-1.9-5-2.7l0.4-0.9c1.8,0.8,3.5,1.7,5.1,2.8L68.7,19.1z M30.8,16.5
			l-0.4-0.9c1.8-0.8,3.6-1.5,5.4-2l0.3,1C34.3,15.1,32.5,15.8,30.8,16.5z M58.5,14.5c-1.8-0.5-3.7-0.9-5.5-1.2l0.1-1
			c1.9,0.3,3.8,0.7,5.7,1.2L58.5,14.5z M41.6,13.3l-0.1-1c1.9-0.3,3.8-0.4,5.8-0.4l0,1C45.4,12.9,43.5,13.1,41.6,13.3z"/>
	</g>
	<g id="XMLID_1754_">
		
			<linearGradient id="XMLID_51_" gradientUnits="userSpaceOnUse" x1="465.7233" y1="-7.1753" x2="501.5555" y2="54.8879" gradientTransform="matrix(0.9954 -9.536995e-02 9.536995e-02 0.9954 -436.3016 74.9539)">
			<stop  offset="0" style="stop-color:#FF9657"/>
			<stop  offset="0.1002" style="stop-color:#F28B4C"/>
			<stop  offset="0.514" style="stop-color:#BF6223"/>
			<stop  offset="0.8267" style="stop-color:#9F480A"/>
			<stop  offset="1" style="stop-color:#933E00"/>
		</linearGradient>
		<circle id="XMLID_1786_" class="st1" cx="47.4" cy="52.6" r="35.8"/>
		<g id="XMLID_1756_">
			<g id="XMLID_1757_">
				<path id="XMLID_1782_" class="st2" d="M49.3,46.5c-0.1,4.4-0.9,8.6-2.7,12.6c-2.4,5.4-6.3,9.4-11,12c-0.8,0.4-1.6,0.4-2.4-0.1
					c-7.1-3.7-12.1-9.4-14-16.5c-0.7-2.8-0.8-5.6-0.6-8.5c0.1-1.5,1.1-2.4,2.8-2.7c3-0.4,6-1.2,8.7-2.7c0.9-0.5,1.7-1,2.5-1.6
					c1.1-0.7,2.2-0.8,3.2-0.1c2,1.4,4.3,2.5,6.8,3c1.3,0.3,2.7,0.5,4,0.6c1.9,0.2,2.8,1.2,2.7,3.1C49.3,46.1,49.3,46.3,49.3,46.5z
					 M36.2,47.4c-1.6,0-3.1,0-4.7,0.1c0,1.8-0.1,3.5-0.1,5.3c-1.4,0-2.7,0-4.1,0c-1.3,0-1.3,0-1.3,1.2c0,1.1,0,2.1,0,3.2
					c0.2,0,0.4,0,0.6,0c1.4,0,2.8,0.1,4.2,0.1c0.5,0,0.7,0.1,0.7,0.6c0,1,0,2,0,2.9c0,0.5,0,1.1,0,1.7c1.5,0,3,0.1,4.6,0.1
					c0-1.8-0.1-3.5-0.1-5.3c0.3,0,0.5,0,0.7,0c1.4,0,2.8,0,4.2,0c0.4,0,0.5-0.1,0.5-0.5c0-0.7,0-1.5,0-2.2c0-0.6,0-1.2,0-1.9
					c-1.8,0-3.6,0-5.4,0C36.1,50.9,36.1,49.2,36.2,47.4z"/>
				<path id="XMLID_1779_" class="st2" d="M33.4,74.7c0.7,0.1,1.4,0.1,2.1,0.1c0,0.7,0.1,1.5,0.1,2.3c7.7,0.5,15.4,0.3,23.1-0.4
					c0.1-0.9,0.2-1.8,0.2-2.7c0.1-0.8,0.1-1.5,0.2-2.3c0.1-1.4,1-2.3,2.4-2.5c1.8-0.1,3.5-0.3,5.3-0.5c0.2,0,0.4,0,0.6-0.1
					c0.8-11.9,0.6-22.7-0.5-34.5c-2.2-0.3-4.4-0.5-6.6-0.7c-0.1-0.8-0.1-1.5-0.2-2.2c0.2,0,0.3,0,0.5,0.1c2,0.2,4,0.5,6,0.8
					c1.4,0.2,2.3,1.2,2.5,2.5c1.5,14,1.3,26.9-0.5,40.8c-0.2,1.4-1.2,2.4-2.6,2.7c-1.8,0.3-3.6,0.6-5.4,0.8
					C52.6,79.7,44.3,80,36,79.4c-1.5-0.1-2.3-1-2.4-2.6C33.5,76.1,33.5,75.4,33.4,74.7z M60.6,76.3c2.2-2,4.4-4,6.7-6
					c-1.6,0.2-3,0.3-4.4,0.5c-1,0.1-1.8,1-2,1.9C60.8,73.9,60.7,75.1,60.6,76.3z"/>
				<path id="XMLID_1778_" class="st2" d="M44,33.6c0-1.3,0-2.5,0-3.6c0-0.8,0.9-1.5,1.7-1.5c0.7,0,1.4,0,2.1,0
					c0.3,0,0.4-0.1,0.4-0.4c0-0.8,0.3-1.1,1.1-1.1c1.1,0,2.2,0.1,3.3,0.2c0.9,0.1,1.2,0.3,1.4,1.3c0,0.1,0,0.1,0.1,0.3
					c0.6,0,1.1,0.1,1.7,0.1c2,0,2.8,1.1,2.8,3c0,0.5,0.1,1.1,0.1,1.6c0.1,0.6,0,0.7-0.6,0.6c-1.7-0.1-3.3-0.2-5-0.3
					c-2.9-0.1-5.8-0.2-8.7-0.2C44.4,33.6,44.2,33.6,44,33.6z"/>
				<path id="XMLID_1777_" class="st2" d="M47.8,64c0.5-0.9,0.9-1.7,1.3-2.4c0.1-0.1,0.3-0.1,0.5-0.1c3.7,0,7.3-0.1,11-0.2
					c0.9,0,1.8-0.1,2.7-0.1c1,0,1.5,0.4,1.5,1.2c0,0.8-0.6,1.2-1.6,1.3c-4.1,0.2-8.2,0.4-12.3,0.4C49.9,64,48.9,64,47.8,64z"/>
				<path id="XMLID_1759_" class="st2" d="M50,40.2c0,0,0.1,0,0.2,0c4.3,0.1,8.6,0.3,12.8,0.5c0.9,0.1,1.5,0.5,1.6,1.3
					c0.1,0.8-0.4,1.2-1.2,1.2c-1.8-0.1-3.5-0.2-5.3-0.2c-1.9-0.1-3.7-0.1-5.6-0.2c-0.3,0-0.4-0.1-0.6-0.4
					C51.3,41.6,50.6,40.9,50,40.2z"/>
				<path id="XMLID_1850_" class="st2" d="M50.9,57.3c0.2-0.9,0.5-1.7,0.7-2.5c0.3,0,0.6,0,0.9,0c3.7,0,7.4,0,11.1-0.1
					c0.9,0,1.5,0.6,1.4,1.4c-0.1,0.5-0.5,0.9-1,1c-0.2,0-0.3,0-0.5,0c-4,0.1-8,0.1-12,0.2C51.2,57.3,51.1,57.3,50.9,57.3z"/>
				<path id="XMLID_1849_" class="st2" d="M52.5,49.3c0-0.8,0.1-1.5,0.1-2.2c0-0.1,0.3-0.3,0.4-0.3c0.9,0,1.7,0,2.6,0
					c2.5,0,5.1,0.1,7.6,0.2c0.3,0,0.6,0,0.9,0.1c0.5,0.2,0.8,0.8,0.7,1.4c-0.1,0.5-0.5,0.9-1.1,0.9c-0.6,0-1.3,0-1.9,0
					c-2.9-0.1-5.8-0.1-8.7-0.1C53,49.4,52.8,49.3,52.5,49.3z"/>
				<path id="XMLID_1758_" class="st2" d="M42.2,32.6c-2.2,0-4.4,0.1-6.6,0.2c0,0.8-0.1,1.6-0.1,2.4c-0.8,0-1.5,0.1-2.2,0.1
					c0.1-1,0-2,0.2-3c0.1-0.9,1-1.7,1.8-1.7c2.3-0.2,4.6-0.2,6.9-0.3C42.2,31.1,42.2,31.8,42.2,32.6z"/>
			</g>
		</g>
		
			<radialGradient id="XMLID_52_" cx="1923.1198" cy="32.2982" r="16.9337" gradientTransform="matrix(1.7709 -0.1697 0.1697 1.7709 -3370.7725 314.4515)" gradientUnits="userSpaceOnUse">
			<stop  offset="0" style="stop-color:#FFFFFF"/>
			<stop  offset="1" style="stop-color:#FFFFFF;stop-opacity:0"/>
		</radialGradient>
		<circle id="XMLID_1755_" class="st3" cx="40.4" cy="45.4" r="30.1"/>
	</g>
</g>
</svg>
