<?xml version="1.0" encoding="utf-8"?>
<!-- Generator: Adobe Illustrator 19.0.0, SVG Export Plug-In . SVG Version: 6.00 Build 0)  -->
<svg version="1.1" id="Camada_1" xmlns="http://www.w3.org/2000/svg" xmlns:xlink="http://www.w3.org/1999/xlink" x="0px" y="0px"
	 viewBox="0 0 94 104.9" style="enable-background:new 0 0 94 104.9;" xml:space="preserve">
<style type="text/css">
	.st0{fill:#FFEEE1;}
	.st1{fill:url(#XMLID_51_);}
	.st2{fill:#F69E57;}
	.st3{fill:url(#XMLID_52_);}
</style>
<g id="XMLID_84_">
	<g id="XMLID_2797_">
		<path id="XMLID_8_" class="st0" d="M46.5,93.9l0-1c1.9,0,3.8-0.1,5.6-0.4l0.1,1C50.4,93.8,48.4,93.9,46.5,93.9z M40.7,93.5
			c-1.9-0.3-3.8-0.7-5.7-1.2l0.3-1c1.8,0.5,3.7,0.9,5.5,1.2L40.7,93.5z M57.9,92.3l-0.3-1c1.8-0.5,3.6-1.2,5.3-2l0.4,0.9
			C61.6,91,59.8,91.7,57.9,92.3z M29.6,90.3c-1.8-0.8-3.5-1.7-5.1-2.8l0.5-0.8c1.6,1,3.3,1.9,5,2.7L29.6,90.3z M68.5,87.4l-0.5-0.8
			c1.6-1,3.1-2.2,4.5-3.4l0.7,0.8C71.6,85.2,70.1,86.4,68.5,87.4z M19.9,84c-1.5-1.3-2.8-2.6-4.1-4.1l0.8-0.7c1.2,1.4,2.6,2.8,4,4
			L19.9,84z M77.2,79.9l-0.8-0.7c1.2-1.4,2.4-2.9,3.4-4.5l0.8,0.5C79.6,76.8,78.4,78.4,77.2,79.9z M12.3,75.3c-1-1.6-2-3.3-2.8-5.1
			l0.9-0.4c0.8,1.7,1.7,3.4,2.7,5L12.3,75.3z M83.4,70.1l-0.9-0.4c0.8-1.7,1.4-3.5,2-5.3l1,0.3C84.9,66.6,84.2,68.4,83.4,70.1z
			 M7.5,64.8c-0.5-1.8-1-3.8-1.2-5.7l1-0.1c0.3,1.9,0.7,3.7,1.2,5.5L7.5,64.8z M86.7,59l-1-0.1c0.3-1.9,0.4-3.8,0.4-5.6v-0.2h1v0.2
			C87.1,55.2,87,57.1,86.7,59z M5.8,53.3L5.8,53.3c0-2,0.1-3.9,0.4-5.8l1,0.1c-0.3,1.8-0.4,3.7-0.4,5.6L5.8,53.3z M85.7,47.5
			c-0.3-1.9-0.7-3.7-1.2-5.5l1-0.3c0.5,1.9,1,3.8,1.2,5.7L85.7,47.5z M8.4,42.2l-1-0.3c0.5-1.9,1.2-3.7,2-5.4l0.9,0.4
			C9.6,38.6,8.9,40.4,8.4,42.2z M82.5,36.6c-0.8-1.7-1.7-3.4-2.7-4.9l0.8-0.5c1.1,1.6,2,3.3,2.8,5.1L82.5,36.6z M13,31.9l-0.8-0.5
			c1-1.6,2.2-3.2,3.5-4.6l0.8,0.7C15.2,28.8,14.1,30.3,13,31.9z M76.3,27.2c-1.2-1.4-2.6-2.8-4-4l0.7-0.8c1.5,1.3,2.8,2.6,4.1,4.1
			L76.3,27.2z M20.4,23.4l-0.7-0.8c1.5-1.3,3-2.4,4.6-3.5l0.5,0.8C23.4,21,21.8,22.1,20.4,23.4z M67.8,19.8c-1.6-1-3.3-1.9-5-2.7
			l0.4-0.9c1.8,0.8,3.5,1.7,5.1,2.8L67.8,19.8z M29.9,17.2l-0.4-0.9c1.8-0.8,3.6-1.5,5.4-2l0.3,1C33.4,15.8,31.6,16.4,29.9,17.2z
			 M57.5,15.2c-1.8-0.5-3.7-0.9-5.5-1.2l0.1-1c1.9,0.3,3.8,0.7,5.7,1.2L57.5,15.2z M40.7,14l-0.1-1c1.9-0.3,3.8-0.4,5.8-0.4l0,1
			C44.4,13.6,42.5,13.8,40.7,14z"/>
	</g>
	<g id="XMLID_1843_">
		
			<linearGradient id="XMLID_51_" gradientUnits="userSpaceOnUse" x1="464.8078" y1="-7.0878" x2="500.64" y2="54.9754" gradientTransform="matrix(0.9954 -9.536995e-02 9.536995e-02 0.9954 -436.3016 74.9539)">
			<stop  offset="0" style="stop-color:#FF9657"/>
			<stop  offset="0.1002" style="stop-color:#F28B4C"/>
			<stop  offset="0.514" style="stop-color:#BF6223"/>
			<stop  offset="0.8267" style="stop-color:#9F480A"/>
			<stop  offset="1" style="stop-color:#933E00"/>
		</linearGradient>
		<circle id="XMLID_2985_" class="st1" cx="46.5" cy="52.8" r="35.8"/>
		<g id="XMLID_1847_">
			<path id="XMLID_1848_" class="st2" d="M31.7,54c-1.7-1.7-3.5-3.4-5.4-5c0,0-0.1-0.1-0.2-0.1c-0.7-0.4-1.5-0.6-2.4-0.6
				c-0.8,0.1-1.6,0.3-2.2,0.7c-0.7,0.4-1.1,1-1.4,1.6c-0.4,1-0.2,2,0.7,2.8c4.2,4.5,8,9.2,11.7,14.2c0.5,0.7,1,1.3,1.6,2
				c0.8,1,1.4,2.2,1.5,3.4c0.2,1.2-0.1,2.4-0.6,3.3c-0.2,0.3-0.3,0.4-0.4,0.7c-0.1,0.2-0.2,0.5-0.2,0.8c0,0.3,0.1,0.6,0.2,0.9
				c0.1,0.3,0.3,0.6,0.6,0.8s0.5,0.4,0.8,0.4c6.6,1.4,12.5,1.4,19.1,0.2c0.3-0.1,0.6-0.2,0.8-0.4c0.3-0.2,0.5-0.5,0.7-0.8
				c0.2-0.3,0.3-0.6,0.4-0.9c0-0.3,0-0.6-0.1-0.8c-0.5-1.1-0.8-1.7-1.4-2.9c-0.2-0.4-0.3-1-0.1-1.6c0.1-0.6,0.5-1.2,0.9-1.6
				c2.5-2.6,4.8-6.2,5-9.9c0.3-3.7,0.4-7.5,0.3-11.2c0,0,0-0.1,0-0.1c0,0,0-0.1,0-0.1c-0.2-5-0.6-9.9-1.3-14.8
				c-0.2-1.1-0.8-2.3-1.7-3.2c-0.9-0.9-2-1.6-3.1-1.8c-0.9-0.1-1.7,0.1-2.3,0.6c-0.1-0.7-0.1-1.1-0.2-1.8c-0.1-1.2-0.7-2.3-1.5-3.3
				c-0.8-0.9-1.8-1.5-2.9-1.6c-1.2-0.1-2.3,0.6-2.9,1.7c-0.8-1.1-1.9-1.8-3.1-1.7c-1,0.1-2,0.7-2.7,1.6c-0.7,0.9-1.1,2.1-1.1,3.3
				c0,0,0,0,0,0c-0.7-0.5-1.5-0.6-2.3-0.5c-1,0.2-2.1,0.9-2.8,1.9c-0.8,1-1.3,2.1-1.3,3.2c-0.3,5.4-0.5,10.9-0.5,16.3
				c0,0,0,0.1,0,0.1c0,0,0,0.1,0,0.1C31.7,51.5,31.7,52.3,31.7,54z M46.8,75.1c0.1-2.2,0.2-3.2,0.3-5.4c0-0.2-0.1-0.5-0.2-0.6
				c-0.2-0.2-0.4-0.3-0.6-0.3c-0.2,0-0.4,0.1-0.6,0.3c-0.2,0.2-0.3,0.4-0.3,0.6c-0.1,2.2-0.1,3.2-0.2,5.4c-0.9,0-1.4,0-2.3-0.1
				c0.3-0.7,0.4-1.1,0.7-1.8l0,0c0-0.1,0.1-0.2,0.1-0.3c0.1-2.1,0.1-3.2,0.1-5.3c2.2,0.1,3.3,0.1,5.5,0c-0.1,2.1-0.2,3.2-0.3,5.3
				c0,0.1,0,0.2,0,0.3c0.2,0.7,0.3,1.1,0.5,1.8C48.4,75.1,47.8,75.1,46.8,75.1z M44.7,62.2c0-0.5,0.4-0.9,0.9-0.9c0.7,0,1,0,1.7,0
				c0.5,0,0.9,0.4,0.8,0.9c0,0.5-0.4,0.9-0.9,0.9c-0.7,0-1,0-1.7,0C45.1,63.1,44.7,62.7,44.7,62.2z M57.5,39.4
				c0.7,0.1,1,0.1,1.7,0.2c0.3,2.8,0.5,5.7,0.6,8.5c-0.7,0-1.1,0-1.8-0.1C57.9,45.1,57.7,42.3,57.5,39.4z M57.7,49.8
				c0.8,0,1.3,0,2.1,0c0.1,3.8,0,7.6-0.3,11.4c-0.3,3.3-2,6.3-4.3,8.7c-0.6,0.7-1.1,1.5-1.4,2.3c-0.3,0.9-0.3,1.7-0.1,2.5
				c-1,0.1-1.5,0.2-2.6,0.3c-0.2-0.9-0.4-1.4-0.6-2.3c0.2-2.1,0.2-3.1,0.4-5.2c0.4-0.1,0.8-0.5,1.1-0.9c0.4,0,0.7,0,1.1-0.1
				c0.5,0,0.9-0.5,0.9-0.9c0-0.5-0.3-0.9-0.8-0.8c-0.3,0-0.5,0-0.9,0c0-0.7,0.1-1.1,0.1-1.8c0.3,0,0.5,0,0.9,0
				c0.5,0,0.9-0.4,0.9-0.9c0-0.5-0.3-0.9-0.8-0.8c-0.3,0-0.5,0-0.9,0c0-0.7,0-1.1,0.1-1.8c0.4,0,0.5,0,0.9,0c0.5,0,0.9-0.4,0.9-0.9
				c0-0.5-0.4-0.9-0.9-0.9c-0.4,0-0.7,0-1.1,0c-0.2-0.4-0.6-0.7-1.1-0.8c0-1,0-1.5,0-2.5c1.7-0.5,2.5-0.7,4.2-1.2
				c0.2-0.1,0.4-0.2,0.6-0.5C56.8,51.5,57.1,50.9,57.7,49.8z M54,39.1c0.7,0,1,0.1,1.7,0.1c0.2,2.9,0.4,5.8,0.5,8.7
				c-0.7,0-1.1,0-1.8,0C54.4,45,54.3,42.1,54,39.1z M50.4,34.5c0.7,0,1,0,1.7,0.1c0.3,4.4,0.6,8.9,0.7,13.3c-0.7,0-1.1,0-1.8,0
				C50.8,43.4,50.6,39,50.4,34.5z M47,34.4c0.7,0,1,0,1.7,0c0.2,4.5,0.4,9,0.5,13.4c-0.7,0-1.1,0-1.8,0C47.4,43.4,47.2,38.9,47,34.4
				z M43.7,34.5c0.7,0,1,0,1.7,0c0.2,4.5,0.3,9,0.3,13.5c-0.7,0-1.1,0-1.8,0C43.9,43.4,43.8,38.9,43.7,34.5z M40.4,34.7
				c0.7-0.1,1-0.1,1.7-0.1c0.1,4.5,0.1,8.9,0.1,13.4c-0.7,0-1.1,0-1.7,0C40.4,43.5,40.4,39.1,40.4,34.7z M45.7,49.7c0,2,0,3.1,0,5.1
				c0,0.2,0.1,0.5,0.3,0.6c0.2,0.2,0.4,0.3,0.6,0.3c0.2,0,0.5-0.1,0.6-0.3c0.2-0.2,0.3-0.4,0.3-0.6c0-2,0-3.1,0-5.1
				c2.8,0,5.5,0,8.3,0.1c-0.4,0.7-0.6,1.1-0.9,1.9c-1.8,0.5-2.7,0.7-4.5,1.2c-0.4,0.1-0.7,0.5-0.7,0.9c0,1.3,0,1.9,0,3.1
				c-2.5,0-3.7,0-6.1,0c0-1.3,0-1.9,0-3.1c0-0.4-0.3-0.8-0.6-0.9c-1.8-0.5-2.7-0.7-4.4-1.2c-0.4-0.8-0.6-1.1-0.9-1.9
				C40.2,49.7,42.9,49.7,45.7,49.7z M37,37.6c0.7-0.1,1-0.1,1.7-0.2c0,3.5,0,7,0,10.5c-0.7,0-1,0-1.7,0C36.9,44.5,37,41.1,37,37.6z
				 M33.7,38c0.7-0.1,1-0.1,1.7-0.2c-0.1,3.4-0.1,6.9-0.2,10.3c-0.7,0-1,0-1.7,0.1C33.5,44.8,33.6,41.4,33.7,38z M33.5,58.2
				c0-2.8-0.1-5.6,0-8.3c0.8,0,1.2,0,2.1,0c0.6,1.2,0.9,1.8,1.5,3h0c0.1,0.2,0.3,0.4,0.6,0.5c1.7,0.5,2.5,0.7,4.2,1.2
				c0,1,0,1.5,0,2.5v0c-0.5,0.1-0.8,0.4-1.1,0.8c-0.4,0-0.7,0-1.1,0c-0.5,0-0.9,0.4-0.9,0.9c0,0.5,0.4,0.9,0.9,0.9
				c0.3,0,0.5,0,0.9,0c0,0.7,0,1.1,0,1.8c-0.3,0-0.5,0-0.9,0c-0.5,0-0.9,0.4-0.9,0.8c0,0.5,0.4,0.9,0.9,0.9c0.3,0,0.5,0,0.9,0
				c0,0.7,0,1.1,0,1.8c-0.3,0-0.5,0-0.9,0c-0.5,0-0.8,0.3-0.8,0.8c0,0.5,0.4,0.9,0.8,0.9c0.4,0,0.6,0,1.1,0.1
				c0.1,0.3,0.4,0.5,0.6,0.7c0.3,0.2,0.5,0.3,0.8,0.3c0,2,0,3.1-0.1,5.1c-0.4,0.9-0.5,1.4-0.9,2.3c-1.5-0.1-2.3-0.2-3.8-0.5
				c0.1-2-0.6-4.2-2-5.9c-0.5-0.6-1-1.2-1.5-1.8c-2.8-3.8-5.6-7.5-8.7-11c1.1-1.2,1.7-1.8,2.8-3.1C29.8,54.5,31.6,56.3,33.5,58.2z"
				/>
		</g>
		
			<radialGradient id="XMLID_52_" cx="1460.843" cy="6.5052" r="16.9337" gradientTransform="matrix(1.7709 -0.1697 0.1697 1.7709 -2548.6392 281.8705)" gradientUnits="userSpaceOnUse">
			<stop  offset="0" style="stop-color:#FFFFFF"/>
			<stop  offset="1" style="stop-color:#FFFFFF;stop-opacity:0"/>
		</radialGradient>
		<circle id="XMLID_1846_" class="st3" cx="39.5" cy="45.5" r="30.1"/>
	</g>
</g>
</svg>
